<svg xmlns="http://www.w3.org/2000/svg" width="512" height="512" viewBox="0 0 512 512" version="1.1">
<defs>
  <linearGradient id="bg_grad" x1="0%" y1="0%" x2="0%" y2="100%">
    <stop offset="0%" stop-color="#0B7CAE" />
    <stop offset="100%" stop-color="#024D7A" />
  </linearGradient>
</defs>
<rect width="100%" height="100%" fill="url(#bg_grad)"/>

	<path d="M 215.610 75.008 C 207.793 79.808, 207.752 79.855, 211.088 80.176 C 216.823 80.728, 216.969 81.686, 216.987 119 C 217.001 148.872, 217.192 152.879, 218.752 156 C 221.373 161.248, 223.727 160.983, 231.256 154.596 C 237.772 149.068, 239 148.695, 239 152.244 C 239 153.294, 240.315 155.469, 241.923 157.077 C 247.170 162.324, 253.525 160.459, 263.729 150.678 C 266.055 148.449, 268.117 146.822, 268.312 147.062 C 268.507 147.303, 269.304 149.929, 270.083 152.897 C 272.493 162.076, 275.063 162.089, 284.750 152.970 C 290.678 147.390, 291.390 145.649, 287.080 147.276 C 284.780 148.144, 283.795 148.074, 282.438 146.948 C 280.900 145.672, 280.776 143.934, 281.281 130.775 L 281.848 116.032 276.743 114.516 C 269.478 112.359, 265.142 112.626, 259.175 115.600 C 249.250 120.546, 240.288 132.414, 238.504 142.975 C 238.050 145.661, 237.158 147.063, 235.387 147.869 C 232.091 149.371, 232.286 149.454, 230.377 145.762 C 228.866 142.840, 228.770 139.212, 229.392 108.512 C 230.005 78.246, 229.905 74.252, 228.484 72.250 C 227.605 71.013, 226.125 70.037, 225.193 70.081 C 224.262 70.126, 219.950 72.343, 215.610 75.008 M 125.251 73.545 C 108.745 77.990, 98.942 89.642, 102.037 101.137 C 103.770 107.572, 109.853 113.230, 121.330 119.082 C 135.030 126.067, 144.807 132.636, 147.099 136.395 C 150.107 141.327, 149.599 146.376, 145.665 150.669 C 142.759 153.840, 141.610 154.368, 136.739 154.772 C 122.904 155.919, 109.240 147.712, 106.095 136.366 L 105.300 133.500 99.650 139.098 C 96.467 142.252, 94 145.584, 94 146.731 C 94 149.513, 101.082 155.690, 107.793 158.763 C 111.990 160.684, 115.533 161.411, 122.472 161.774 C 134.133 162.384, 140.617 160.593, 148.949 154.458 C 156.286 149.057, 159.975 142.441, 159.990 134.651 C 160.011 124.319, 153.921 117.982, 135.199 108.853 C 112.139 97.609, 105.622 86.594, 118.626 80.841 C 124.295 78.334, 131.028 78.898, 138.889 82.540 C 145.645 85.670, 148.985 88.307, 151.575 92.557 L 153.651 95.961 156.370 90.231 C 157.865 87.079, 159.181 83.150, 159.294 81.500 C 159.470 78.936, 158.949 78.231, 155.712 76.649 C 146.301 72.052, 135.052 70.906, 125.251 73.545 M 299.500 88.517 C 296.200 90.418, 293.050 92.131, 292.500 92.324 C 291.895 92.536, 292.007 93.289, 292.785 94.232 C 293.491 95.088, 294.341 98.086, 294.674 100.894 L 295.279 106 291.174 106 C 288.140 106, 286.800 106.504, 286.035 107.934 C 284.474 110.851, 284.643 111, 289.500 111 C 293.720 111, 294.006 111.171, 294.091 113.750 C 294.142 115.263, 294.282 124.375, 294.404 134 C 294.652 153.641, 295.776 158.404, 300.442 159.575 C 302.581 160.112, 304.156 159.251, 309.758 154.487 C 315.771 149.373, 318.913 146, 317.664 146 C 317.425 146, 315.944 146.667, 314.373 147.481 C 311.745 148.845, 311.359 148.803, 309.509 146.956 C 307.683 145.132, 307.471 143.404, 307.184 127.975 L 306.868 111 312.774 111 C 318.102 111, 318.790 110.756, 319.818 108.500 L 320.957 106 314.479 106 L 308 106 308 95.500 C 308 87.751, 307.673 85.008, 306.750 85.030 C 306.063 85.047, 302.800 86.616, 299.500 88.517 M 336.109 93.981 C 330.394 97.227, 325.314 100.286, 324.820 100.780 C 324.289 101.311, 325.655 101.642, 328.161 101.589 C 334.890 101.448, 335.120 102.436, 334.775 130 C 334.569 146.415, 334.105 154.161, 333.236 155.692 C 332.459 157.062, 330.399 158.241, 327.746 158.835 C 324.515 159.558, 327.805 159.786, 341.500 159.788 C 356.974 159.790, 358.957 159.622, 355.630 158.591 C 348.870 156.497, 349 157.239, 349 120.809 C 349 95.207, 348.725 88.009, 347.750 88.040 C 347.063 88.062, 341.824 90.735, 336.109 93.981 M 378.222 91.470 C 367.479 94.824, 359.255 104.908, 356.881 117.635 C 353.769 134.315, 361.498 151.742, 374.810 158.063 C 381.230 161.112, 391.675 161.210, 398.176 158.283 C 409.889 153.010, 417.025 141.782, 417.798 127.409 C 419.191 101.549, 400.448 84.529, 378.222 91.470 M 378.849 97.464 C 377.391 98.287, 375.141 101.107, 373.849 103.730 C 371.733 108.028, 371.508 109.787, 371.577 121.500 C 371.642 132.514, 372 135.387, 373.920 140.305 C 379.594 154.845, 391.785 159.239, 398.782 149.265 C 407.351 137.052, 403.849 107.179, 392.899 99.083 C 388.962 96.173, 382.463 95.424, 378.849 97.464 M 183.296 115.540 C 177.441 118.458, 170.166 125.794, 167.027 131.947 C 162.019 141.764, 162.310 153.739, 167.659 157.946 C 172.515 161.766, 177.494 160.212, 187.220 151.839 L 192.940 146.914 193.563 149.707 C 194.820 155.345, 195.268 156.535, 196.773 158.250 C 197.618 159.213, 199.089 160, 200.041 160 C 202.173 160, 216.090 147.097, 214 147.059 C 213.175 147.043, 211.866 147.432, 211.091 147.923 C 205.767 151.293, 203.669 137.999, 206.575 119.299 C 207.058 116.189, 206.926 116.055, 201.855 114.549 C 194.362 112.324, 189.195 112.600, 183.296 115.540 M 183.871 120.685 C 177.728 124.497, 173.004 135.732, 174.892 142.035 C 176.964 148.951, 183.187 149.666, 189.531 143.719 C 192.823 140.632, 192.990 140.125, 193.618 131.346 L 194.272 122.192 191.186 120.596 C 187.413 118.645, 187.153 118.648, 183.871 120.685 M 255.738 123.992 C 249.734 131.007, 248.040 141.810, 252.314 145.826 C 255.155 148.494, 258.587 148.589, 262.359 146.102 C 267.604 142.644, 268.986 139.350, 268.993 130.285 C 268.999 123.183, 268.738 121.930, 267.066 121.035 C 262.973 118.845, 259.331 119.796, 255.738 123.992 M 355.147 236.064 C 349.595 237.170, 342.710 241.194, 340.100 244.859 C 337.195 248.939, 335.565 255.868, 336.428 260.468 C 338.751 272.852, 358.151 276.991, 363.837 266.316 C 365.501 263.191, 365.283 261.283, 363 259 C 360.332 256.332, 354.891 256.358, 352.455 259.050 C 350.857 260.815, 350.765 261.538, 351.788 264.248 C 352.679 266.609, 352.689 267.574, 351.829 268.106 C 349.020 269.842, 343.460 265.268, 341.851 259.898 C 340.887 256.680, 341.038 255.553, 342.964 251.574 C 348.758 239.605, 366.218 238.553, 374.692 249.663 C 377.172 252.914, 377.500 254.190, 377.500 260.588 C 377.500 266.627, 377.108 268.362, 375.146 271.017 C 373.066 273.830, 373.007 274.142, 374.646 273.693 C 375.666 273.414, 377.665 272.929, 379.088 272.614 C 380.867 272.222, 382.187 270.863, 383.307 268.271 C 386.951 259.841, 386.318 252.459, 381.301 244.878 C 376.799 238.075, 365.007 234.101, 355.147 236.064 M 414.556 237.910 C 413.479 239.652, 415.230 242, 417.607 242 C 419.493 242, 420 241.470, 420 239.500 C 420 237.516, 419.496 237, 417.559 237 C 416.216 237, 414.865 237.409, 414.556 237.910 M 390.001 240.250 C 390.001 240.387, 390.844 242.750, 391.874 245.500 C 392.904 248.250, 394.056 252.637, 394.435 255.250 C 394.813 257.863, 395.505 260, 395.972 260 C 397.671 260, 406.077 248.275, 404.824 247.654 C 404.646 247.565, 403.150 246.552, 401.500 245.402 C 396.225 241.724, 389.998 238.934, 390.001 240.250 M 436.426 241.759 C 429.809 244.125, 418.109 251.464, 406.115 260.772 C 393.527 270.542, 393.682 270.355, 398.689 269.730 C 401.714 269.352, 405.187 267.543, 411.189 263.218 C 429.517 250.012, 442.926 244.093, 451.433 245.453 C 459.720 246.778, 465 252.264, 465 259.550 C 465 262.368, 464.225 263.975, 461.600 266.600 C 458.753 269.447, 457.477 270, 453.755 270 C 450.719 270, 448.785 269.420, 447.655 268.171 C 445.489 265.778, 445.551 264, 447.800 264 C 451.931 264, 453.651 257.954, 450.066 256.035 C 446.567 254.163, 442.981 254.866, 439.800 258.046 C 437.190 260.656, 436.837 261.608, 437.337 264.690 C 438.943 274.584, 452.627 277.863, 463.759 271.021 C 468.897 267.864, 471.178 263.412, 470.737 257.408 C 470.274 251.125, 467.475 246.948, 461.301 243.331 C 455.234 239.775, 443.967 239.063, 436.426 241.759 M 481.667 248.667 C 480.399 249.934, 481.008 251, 483 251 C 484.111 251, 485 250.333, 485 249.500 C 485 247.978, 482.885 247.449, 481.667 248.667 M 489.365 257.905 C 472.366 262.217, 473.909 283, 491.228 283 C 497.110 283, 500 280.831, 500 276.419 C 500 273.614, 499.508 272.763, 497.431 271.974 C 493.881 270.624, 490.049 271.797, 488.760 274.628 C 486.857 278.804, 483 276.843, 483 271.701 C 483 265.783, 492.152 260.776, 499.870 262.472 C 501.473 262.824, 504.887 264.445, 507.457 266.075 L 512.130 269.038 511.815 265.821 C 511.552 263.137, 510.755 262.229, 507 260.337 C 501.951 257.792, 494.085 256.708, 489.365 257.905 M 295.869 262.847 C 284.827 267.304, 279.219 275.281, 278.889 287 C 278.661 295.110, 281.507 301.244, 289.414 309.687 C 294.492 315.110, 294.971 315.389, 296.544 313.848 C 298.125 312.302, 298.043 311.922, 295.256 307.848 C 286.044 294.384, 285.018 282.808, 292.175 273.076 C 301.784 260.010, 323 261.476, 323 275.207 C 323 280.813, 318.553 285.455, 313.182 285.455 C 306.180 285.455, 302.954 280.366, 306.630 275.118 C 308.209 272.863, 308.194 272.826, 306.153 273.918 C 301.937 276.174, 300.640 282.613, 303.561 286.783 C 307.415 292.286, 317.206 293.698, 324.212 289.761 C 329.094 287.017, 331 283.551, 331 277.418 C 331 271.434, 328.378 267.145, 322.799 264.002 C 316.890 260.673, 302.758 260.067, 295.869 262.847 M 423.667 263.667 C 422.290 265.043, 423.073 267, 425 267 C 426.333 267, 427 266.333, 427 265 C 427 263.073, 425.043 262.290, 423.667 263.667 M 396.500 276.212 C 376.061 277.969, 361.278 282.070, 342 291.328 C 327.682 298.204, 314.222 307.190, 293 324.043 C 272.432 340.376, 261.549 347.671, 247.500 354.539 C 227.968 364.089, 212.120 368.196, 194.911 368.168 C 175.957 368.138, 164.128 364.028, 138.500 348.569 C 105.115 328.431, 85.609 322.612, 51.500 322.614 C 32.101 322.616, 23.649 323.736, 5.750 328.676 L 0 330.264 0 334.239 C 0 337.616, 0.263 338.112, 1.750 337.537 C 5.451 336.104, 23.540 332.031, 31.131 330.921 C 36.070 330.198, 45.984 329.945, 57.292 330.252 C 73.396 330.690, 76.853 331.099, 87.208 333.794 C 100.351 337.215, 119.450 345.902, 135 355.534 C 144.820 361.616, 172.003 381.681, 171.996 382.843 C 171.994 383.204, 168.056 383.547, 163.246 383.604 C 147.340 383.792, 140.209 386.538, 98.500 408.538 C 85.085 415.614, 65.779 423.975, 62.817 423.991 C 61.892 423.996, 60.867 423.157, 60.540 422.126 C 60.080 420.677, 58.562 420.096, 53.849 419.562 C 38.826 417.863, 24.009 409.774, 8.312 394.704 L -0 386.724 -0 390.740 C -0 394.416, 0.528 395.217, 6.250 400.220 C 15.300 408.132, 21.644 412.455, 30.096 416.468 C 37.575 420.020, 48.664 422.950, 54.750 422.983 C 60.767 423.015, 58.427 425.537, 50.750 427.293 C 36.268 430.607, 29.226 431.422, 14.753 431.461 L 0.005 431.500 0.003 434.191 C 0.001 435.671, 0.436 437.151, 0.969 437.481 C 2.672 438.533, 28.176 438.225, 37.500 437.039 C 42.450 436.410, 50.917 434.778, 56.315 433.413 L 66.129 430.932 72.815 435.320 C 114.135 462.439, 166.053 477.842, 208.634 475.615 C 242.668 473.835, 268.288 464.993, 307.500 441.493 C 330.104 427.947, 340.625 421.216, 369.545 401.804 C 407.711 376.184, 425.213 367.572, 449.500 362.459 C 466.596 358.860, 489.591 359.639, 507.750 364.433 L 513 365.819 512.825 357.659 C 512.727 353.066, 512.483 351.357, 512.268 353.750 C 512.057 356.087, 511.776 358, 511.642 358 C 511.508 358, 507.371 357.086, 502.449 355.968 C 490.671 353.295, 469.296 352.348, 456.401 353.929 C 440.245 355.909, 420.437 362.125, 404.707 370.149 L 400.893 372.095 395.448 369.431 C 390.869 367.190, 389.002 366.831, 383.702 367.168 C 374.238 367.771, 368.104 371.296, 354.404 384.005 C 343.687 393.947, 333.022 401.355, 331.547 399.881 C 331.233 399.566, 331.844 397.327, 332.905 394.905 C 335.450 389.094, 337.323 379.179, 336.837 374.086 C 336.513 370.692, 336.748 370, 338.224 370 C 340.637 370, 340.471 367.308, 337.963 365.758 C 336.842 365.066, 334.545 362.061, 332.858 359.079 C 328.423 351.242, 320.790 343.598, 314.702 340.897 C 307.280 337.604, 298.049 337.649, 292.044 341.008 C 279.538 348.003, 277.292 364.645, 287.898 371.730 C 296.388 377.402, 308.205 370.930, 304.957 362.387 C 302.960 357.134, 295.234 357.197, 292.825 362.485 C 291.491 365.412, 290.725 365.582, 288.571 363.429 C 285.951 360.808, 286.597 354.944, 289.955 350.870 C 301.530 336.828, 325.188 351.067, 328.801 374.250 C 330.559 385.526, 326.964 396.744, 318.732 405.674 C 313.343 411.522, 308.022 414.148, 300.314 414.767 C 294.937 415.199, 293.294 414.889, 288.497 412.543 C 285.433 411.043, 282.216 408.733, 281.348 407.408 C 279.420 404.465, 275.362 403.940, 276.911 406.834 C 278.809 410.381, 285.493 416.023, 289.700 417.629 C 292.840 418.829, 296.116 419.135, 302.226 418.803 C 311.483 418.298, 315.009 416.867, 321.364 411.036 C 324.288 408.353, 326.819 407.024, 330 406.501 C 341.176 404.663, 345.678 401.878, 363.448 385.809 C 374.762 375.577, 381.721 371.857, 389.550 371.857 C 399.030 371.857, 399.174 373.068, 390.340 378.512 C 386.028 381.170, 373.827 389.229, 363.226 396.422 C 326.405 421.407, 321.513 423.803, 302.401 426.217 C 270.750 430.215, 230.501 413.967, 172.561 373.804 C 170.699 372.513, 172.702 371.936, 175.437 372.976 C 176.930 373.544, 182.386 374.480, 187.562 375.057 C 211.442 377.720, 244.791 367.674, 271.303 349.832 C 277.687 345.536, 291.831 334.690, 305 323.994 C 351.434 286.278, 397.823 274.487, 449 287.391 C 471.335 293.022, 497.854 304.718, 507.460 313.174 L 512.129 317.283 511.814 312.892 C 511.507 308.597, 511.313 308.374, 503 302.770 C 489.209 293.473, 462.111 282.729, 443 278.979 C 434.577 277.326, 410.993 274.912, 407 275.294 C 406.175 275.373, 401.450 275.786, 396.500 276.212 M 82 280.365 C 82 282.429, 78.041 287.034, 75.406 288.036 C 74.061 288.547, 71.895 288.550, 70.287 288.044 C 68.754 287.561, 66.184 286.875, 64.575 286.520 C 61.996 285.950, 61.805 286.060, 62.958 287.449 C 63.677 288.316, 67.018 290.348, 70.383 291.966 C 77.888 295.576, 85.526 301.889, 95.651 312.853 C 104.437 322.367, 111.656 328.025, 119.835 331.809 C 124.430 333.935, 127.011 334.435, 133.500 334.455 C 143.366 334.486, 148.052 332.915, 153.743 327.670 C 158.016 323.730, 161.646 318.313, 160.668 317.335 C 160.405 317.071, 158.459 317.943, 156.344 319.272 C 149.784 323.395, 128.583 329.614, 124.544 328.600 C 121.047 327.723, 121.383 326.808, 125.982 324.688 C 132.594 321.641, 136.058 313.644, 134.030 306.111 C 131.468 296.596, 117.892 293.236, 112.045 300.669 C 109.433 303.990, 109.320 310.075, 111.829 312.345 C 114.363 314.639, 115.321 314.413, 114.635 311.684 C 113.950 308.951, 116.268 305.206, 119.352 304.066 C 125.096 301.941, 131.195 308.716, 128.927 314.702 C 126.397 321.378, 120.351 324.261, 113.572 322.024 C 111.214 321.246, 106.044 316.876, 98.256 309.078 C 91.790 302.604, 85.375 296.516, 84 295.550 C 82.192 294.279, 81.880 293.648, 82.875 293.271 C 86.228 292, 88.214 288.818, 87.592 285.711 C 86.670 281.098, 82 276.634, 82 280.365 M 265 280.594 C 265 281.470, 264.100 282.423, 263 282.710 C 260.807 283.284, 260.219 286, 262.289 286 C 262.997 286, 265.247 286.851, 267.289 287.892 L 271 289.784 271 286.326 C 271 284.425, 270.534 281.998, 269.965 280.934 C 268.711 278.591, 265 278.337, 265 280.594 M 340 280.559 C 340 281.416, 340.457 281.835, 341.016 281.490 C 341.575 281.144, 341.774 280.443, 341.457 279.931 C 340.600 278.544, 340 278.802, 340 280.559 M 20.024 283.603 C 14.134 285.186, 8.030 288.421, 3.088 292.580 C 0.302 294.924, 0.002 295.731, 0.017 300.839 L 0.034 306.500 2.043 303.363 C 4.892 298.917, 12.322 293.409, 18.888 290.874 C 25.687 288.250, 40.052 287.202, 45.332 288.944 C 53.261 291.561, 57.329 300.517, 53.347 306.593 C 48.175 314.486, 31.313 315.079, 29.394 307.435 C 28.571 304.154, 29.174 303.667, 32.297 305.089 C 35.608 306.598, 39.634 305.553, 41.106 302.802 C 42.111 300.924, 41.903 300.313, 39.579 298.314 C 36.444 295.618, 34.031 295.416, 29.980 297.510 C 26.504 299.308, 25 301.812, 25 305.799 C 25 315.743, 41.598 320.568, 54.071 314.250 C 58.642 311.934, 59.895 310.671, 62 306.254 C 63.375 303.368, 64.824 301.006, 65.219 301.004 C 65.615 301.002, 67.542 303.507, 69.502 306.571 C 72.202 310.791, 74.169 312.629, 77.616 314.154 C 80.119 315.261, 82.317 316.016, 82.501 315.832 C 82.685 315.648, 81.737 313.186, 80.395 310.360 C 78.242 305.830, 77.127 304.789, 70.966 301.552 C 65.482 298.670, 63.546 297.030, 61.963 293.927 C 59.372 288.849, 53.243 284.432, 46.900 283.072 C 39.951 281.582, 26.562 281.846, 20.024 283.603 M 423.516 291.509 L 419.532 293.956 422.881 294.626 C 424.722 294.994, 427.753 296.819, 429.615 298.681 L 433 302.067 433 298.484 C 433 294.402, 430.550 288.985, 428.724 289.031 C 428.051 289.048, 425.707 290.164, 423.516 291.509 M 502.667 289.667 C 501.516 290.817, 501.938 292, 503.500 292 C 504.325 292, 505 291.325, 505 290.500 C 505 288.938, 503.817 288.516, 502.667 289.667 M 98.105 291.373 C 96.439 293.381, 97.860 296.162, 100.367 295.803 C 102.823 295.451, 103.821 292.135, 101.848 290.885 C 99.995 289.710, 99.423 289.785, 98.105 291.373 M 394.673 295.919 C 392.103 298.666, 390 301.566, 390 302.364 C 390 303.548, 389.382 303.623, 386.619 302.775 C 384.717 302.191, 381.172 302.047, 378.517 302.445 L 373.796 303.153 374.455 307.827 C 374.817 310.397, 375.329 313.241, 375.592 314.147 C 375.905 315.227, 374.938 316.494, 372.785 317.827 C 370.978 318.945, 368.247 321.170, 366.715 322.771 L 363.931 325.682 368.281 329.591 C 370.674 331.741, 373.351 333.950, 374.231 334.500 C 375.593 335.351, 375.694 336.455, 374.908 341.909 C 374.400 345.434, 374.187 348.520, 374.434 348.767 C 375.243 349.576, 386.460 349.507, 388.131 348.682 C 389.369 348.071, 390.007 348.555, 390.778 350.689 C 391.338 352.235, 393.615 355.423, 395.840 357.773 L 399.886 362.045 403.965 357.773 C 406.209 355.423, 408.301 352.339, 408.613 350.921 C 409.178 348.359, 409.238 348.345, 417.223 348.807 L 425.264 349.272 424.541 343.479 C 424.143 340.293, 423.594 337.105, 423.321 336.393 C 423.025 335.623, 424.175 334.523, 426.162 333.673 C 427.998 332.888, 430.850 330.800, 432.500 329.033 L 435.500 325.819 430.653 321.410 C 427.988 318.984, 425.145 317, 424.336 317 C 423.417 317, 423.047 316.343, 423.351 315.250 C 423.618 314.288, 424.130 310.913, 424.490 307.750 L 425.144 302 419.637 302 C 416.608 302, 413.018 302.423, 411.658 302.940 C 409.550 303.741, 409.106 303.558, 408.637 301.690 C 408.334 300.485, 406.120 297.570, 403.716 295.211 L 399.346 290.923 394.673 295.919 M 510.557 291.908 C 510.249 292.407, 510.418 293.869, 510.935 295.158 C 511.813 297.349, 511.877 297.290, 511.937 294.250 C 512.001 290.964, 511.581 290.251, 510.557 291.908 M 384 295.500 C 384 296.530, 384.655 297.020, 385.750 296.810 C 387.858 296.404, 387.725 294.629, 385.553 294.177 C 384.647 293.988, 384 294.539, 384 295.500 M 441.541 297.298 C 438.659 301.696, 442.121 304.826, 446.404 301.694 C 447.502 300.891, 448.057 299.446, 447.845 297.944 C 447.360 294.509, 443.619 294.126, 441.541 297.298 M 365.135 298.555 C 363.392 300.772, 362.810 300.969, 360.948 299.972 C 359.521 299.208, 358.449 299.151, 357.795 299.805 C 357.142 300.458, 358.114 301.998, 360.653 304.332 C 362.940 306.436, 364.659 307.390, 364.893 306.685 C 365.109 306.033, 366.121 304.306, 367.143 302.846 C 370.570 297.948, 368.721 293.997, 365.135 298.555 M 457 297 C 457 297.550, 457.702 298, 458.559 298 C 459.416 298, 459.840 297.550, 459.500 297 C 459.160 296.450, 458.459 296, 457.941 296 C 457.423 296, 457 296.450, 457 297 M 241.445 299.905 C 218.359 306.141, 193.889 323.307, 186.472 338.468 C 183.203 345.150, 182.496 353.809, 184.860 358.233 C 186.313 360.953, 189.841 363, 193.077 363 C 195.012 363, 195.007 362.928, 192.889 360.064 C 189.717 355.773, 189.271 348.436, 191.831 342.649 C 199.331 325.695, 234.510 305, 255.829 305 C 262.950 305, 266.496 306.169, 270.256 309.757 C 275.877 315.119, 275.737 324.154, 269.901 332.802 L 266.885 337.271 271.192 334.755 C 280.744 329.176, 284.479 318.029, 279.821 309 C 278.048 305.563, 276.201 303.802, 272 301.543 C 267.270 299, 265.240 298.545, 257.500 298.292 C 251.014 298.081, 246.530 298.531, 241.445 299.905 M 300 299.441 C 300 300.234, 300.359 301.104, 300.798 301.375 C 302.077 302.166, 304.323 300.332, 303.569 299.112 C 302.577 297.506, 300 297.744, 300 299.441 M 396.766 300.723 C 395.264 302.290, 393.746 305.019, 393.393 306.786 C 392.668 310.410, 392.474 310.486, 389 308.500 C 387.625 307.714, 384.792 307.055, 382.705 307.035 L 378.909 307 379.586 310.750 C 379.959 312.813, 380.654 315.258, 381.132 316.184 C 382.393 318.631, 382.323 318.738, 378.647 319.951 C 376.803 320.560, 374.309 322.107, 373.105 323.388 L 370.916 325.719 374.493 328.859 C 376.460 330.587, 379.156 332, 380.484 332 C 382.868 332, 382.879 332.045, 381.392 335.603 C 380.564 337.585, 380.025 340.397, 380.194 341.853 C 380.675 346.014, 383.762 345.855, 393.389 341.173 C 393.878 340.935, 394.008 341.179, 393.677 341.714 C 392.672 343.339, 394.941 349.825, 397.536 352.748 L 399.978 355.500 402.034 353 C 404.636 349.837, 406 346.546, 406 343.435 C 406 340.583, 406.306 340.499, 409.377 342.512 C 410.646 343.343, 413.443 344.131, 415.592 344.262 L 419.500 344.500 419.186 340.500 C 419.014 338.300, 418.216 335.488, 417.413 334.250 C 416.021 332.104, 416.084 332, 418.765 332 C 420.444 332, 422.969 330.799, 425.038 329.017 L 428.500 326.033 425.234 323.017 C 423.121 321.065, 420.915 320, 418.984 320 C 417.343 320, 416 319.870, 416 319.711 C 416 319.553, 416.900 317.658, 418 315.500 C 419.100 313.342, 420 310.547, 420 309.289 C 420 307.304, 419.501 307.005, 416.250 307.035 C 414.188 307.055, 411.375 307.714, 410 308.500 C 406.519 310.490, 406 310.358, 406 307.485 C 406 306.042, 404.614 303.459, 402.748 301.422 L 399.496 297.873 396.766 300.723 M 454.591 306.573 C 442.812 310.889, 436.825 323.465, 441.370 334.343 C 446.680 347.051, 468.729 351.362, 478.490 341.600 C 481.988 338.102, 482.001 331.343, 478.517 327.203 C 472.892 320.518, 460 321.513, 460 328.632 C 460 331.620, 464.155 334.429, 467.378 333.620 C 470.984 332.715, 472.706 335.274, 470.626 338.448 C 467.588 343.084, 458.416 343.080, 452.332 338.440 C 442.806 331.174, 444.542 319.911, 456.105 313.962 C 461.203 311.339, 468.439 310.623, 476 311.992 C 482.903 313.243, 492 316.697, 492 318.068 C 492 318.520, 489.867 319.028, 487.259 319.195 C 481.836 319.544, 480.532 321.716, 483.662 325.186 C 485.304 327.006, 486.260 327.156, 492.609 326.583 C 501.060 325.821, 504.109 326.775, 508.669 331.611 L 512 335.142 512 331.722 C 512 324.161, 492.358 309.344, 478 306.074 C 471.618 304.620, 459.198 304.885, 454.591 306.573 M 339.238 307.278 C 337.078 308.269, 337.196 308.441, 341.879 311.116 C 347.007 314.045, 351 320.122, 351 325 C 351 328.938, 347.064 335.798, 343.561 337.962 C 336.676 342.218, 327.567 339.074, 328.195 332.659 C 328.468 329.878, 328.865 329.532, 331.954 329.382 C 335.699 329.199, 339 326.158, 339 322.889 C 339 319.616, 335.402 317, 330.900 317 C 327.571 317, 326.161 317.639, 323.400 320.400 C 320.449 323.351, 320 324.454, 320 328.752 C 320 338.105, 326.993 344.540, 336.998 344.393 C 345.560 344.267, 353.376 339.434, 355.933 332.685 C 357.415 328.774, 357.266 321.557, 355.623 317.718 C 352.763 311.033, 343.673 305.241, 339.238 307.278 M 250.121 312.710 C 241.737 316.841, 240.379 329.559, 247.907 333.452 C 251.961 335.548, 255.844 335.392, 259.809 332.975 C 262.711 331.206, 263.080 330.511, 262.809 327.330 C 262.406 322.597, 260.149 321.128, 255.801 322.769 C 252.937 323.850, 252.319 323.764, 250.596 322.040 C 248.929 320.374, 248.815 319.702, 249.821 317.494 C 250.470 316.069, 252.359 314.332, 254.017 313.635 C 255.676 312.937, 256.726 312.059, 256.350 311.683 C 255.309 310.642, 253.822 310.887, 250.121 312.710 M 10.131 314.613 C 8.771 317.597, 8.740 317.519, 11.609 318.398 C 12.877 318.787, 14.168 318.503, 14.846 317.685 C 15.717 316.636, 15.445 315.828, 13.656 314.146 L 11.336 311.967 10.131 314.613 M 394 317.006 C 394 320.825, 393.908 320.932, 391.099 320.370 C 389.504 320.051, 387.377 320.249, 386.373 320.811 C 384.718 321.737, 384.848 322.004, 387.767 323.667 C 391.495 325.789, 391.794 327.023, 389 328.768 C 385.961 330.666, 386.585 332.192, 390.250 331.825 C 393.339 331.516, 393.525 331.691, 394 335.342 L 394.500 339.185 396.934 336.582 L 399.368 333.979 402.075 336.571 C 405.089 339.459, 406.603 338.539, 405.575 334.443 C 405.012 332.199, 405.248 332, 408.481 332 C 412.484 332, 412.874 331.101, 410 328.500 C 407.418 326.163, 407.479 325.617, 410.500 324 C 413.995 322.130, 413.620 321.172, 409.250 320.810 C 405.771 320.522, 405.500 320.271, 405.500 317.333 C 405.500 312.753, 404.148 312.091, 401.517 315.383 C 399.287 318.173, 399.178 318.201, 398.134 316.251 C 397.541 315.142, 396.368 313.971, 395.528 313.649 C 394.317 313.184, 394 313.880, 394 317.006 M 174.667 315.667 C 173.491 316.842, 173.954 319.768, 175.403 320.324 C 177.484 321.123, 180.440 318.589, 179.694 316.645 C 179.065 315.007, 175.935 314.398, 174.667 315.667 M 91 319.500 C 91 320.417, 91.484 321.005, 92.075 320.808 C 92.666 320.611, 93.150 320.022, 93.150 319.500 C 93.150 318.978, 92.666 318.389, 92.075 318.192 C 91.484 317.995, 91 318.583, 91 319.500 M 397 324.500 C 396.007 325.697, 396.007 326.303, 397 327.500 C 397.685 328.325, 398.810 329, 399.500 329 C 400.190 329, 401.315 328.325, 402 327.500 C 402.993 326.303, 402.993 325.697, 402 324.500 C 401.315 323.675, 400.190 323, 399.500 323 C 398.810 323, 397.685 323.675, 397 324.500 M 230 325 C 230 325.550, 230.450 326, 231 326 C 231.550 326, 232 325.550, 232 325 C 232 324.450, 231.550 324, 231 324 C 230.450 324, 230 324.450, 230 325 M 169 331.956 C 158.857 332.625, 153.587 334.569, 149.217 339.252 L 146.934 341.699 157.217 341.229 C 168.416 340.717, 171.802 339.735, 176.750 335.563 C 179.749 333.034, 181.034 330.773, 179.250 331.165 C 178.838 331.256, 174.225 331.612, 169 331.956 M 211 332.118 C 206.962 333.720, 202.040 339.138, 200.952 343.178 C 198.899 350.802, 205.445 358.181, 212.655 356.372 L 215.293 355.710 212.397 354.248 C 204.983 350.506, 205.129 343.852, 212.734 338.837 C 216.758 336.184, 222.218 336.471, 225.850 339.527 C 229.993 343.013, 230.732 347.094, 228.044 351.650 C 225.587 355.815, 225.767 356.552, 228.734 354.474 C 233.463 351.161, 234.019 341.836, 229.806 336.480 C 225.976 331.611, 217.333 329.606, 211 332.118 M 43.667 336.667 C 42.386 337.948, 43.014 340.791, 44.724 341.447 C 47.047 342.339, 49.426 339.218, 47.861 337.332 C 46.670 335.897, 44.742 335.591, 43.667 336.667 M 61.161 340.441 C 58.910 342.883, 56.772 346.060, 56.411 347.501 C 55.970 349.255, 55.271 349.934, 54.292 349.558 C 51.586 348.520, 42.180 347.738, 39.746 348.349 C 37.379 348.943, 37.353 349.064, 38.416 354.727 C 39.012 357.902, 39.883 361.092, 40.350 361.817 C 41.362 363.384, 41.518 363.221, 36.500 365.848 C 34.300 366.999, 30.949 369.377, 29.054 371.132 L 25.608 374.322 30.464 378.718 C 33.134 381.136, 36.622 383.374, 38.214 383.693 C 40.399 384.130, 40.941 384.668, 40.424 385.886 C 40.046 386.774, 39.329 389.934, 38.830 392.908 C 38.331 395.882, 37.697 398.682, 37.420 399.129 C 36.557 400.525, 41.875 401.278, 49.007 400.767 C 55.471 400.305, 55.884 400.403, 56.419 402.534 C 56.731 403.775, 58.977 406.975, 61.411 409.645 L 65.836 414.500 70.033 410.500 C 72.341 408.300, 74.803 405.177, 75.504 403.560 C 76.756 400.674, 76.920 400.620, 84.639 400.560 L 92.500 400.500 92.205 395.500 C 92.043 392.750, 91.670 389.262, 91.376 387.750 C 90.937 385.495, 91.198 385, 92.824 385 C 93.914 385, 96.988 383.011, 99.653 380.579 L 104.500 376.158 100 371.536 C 97.525 368.994, 94.487 366.659, 93.250 366.348 C 90.219 365.587, 90.415 364.196, 93.750 362.797 C 96.422 361.676, 96.435 361.632, 94.219 361.248 C 92.267 360.910, 92.011 360.393, 92.448 357.676 C 93.873 348.815, 94.491 349.508, 85.090 349.433 C 77.119 349.370, 76.633 349.240, 75.788 346.933 C 74.908 344.531, 67.207 336, 65.919 336 C 65.554 336, 63.413 337.998, 61.161 340.441 M 498 339 C 498 340.333, 497.333 341, 496 341 C 494.715 341, 494 341.667, 494 342.864 C 494 344.302, 494.982 344.863, 498.295 345.317 C 500.658 345.641, 503.410 346.220, 504.411 346.604 C 505.962 347.200, 506.121 346.948, 505.484 344.901 C 503.587 338.800, 498 334.394, 498 339 M 240.709 338.624 C 240.319 339.014, 240 340.188, 240 341.233 C 240 342.716, 240.604 343.063, 242.750 342.816 C 244.728 342.589, 245.500 341.938, 245.500 340.500 C 245.500 338.491, 242.153 337.181, 240.709 338.624 M 362.309 339.262 C 361.864 339.974, 360.378 341.039, 359.006 341.627 L 356.513 342.697 359.506 344.222 C 365.807 347.431, 366.510 347.344, 366.397 343.361 C 366.286 339.464, 363.763 336.934, 362.309 339.262 M 20.122 341.278 C 19.505 341.895, 19 343.444, 19 344.719 C 19 346.693, 18.628 346.945, 16.500 346.411 C 14.986 346.031, 14 346.210, 14 346.867 C 14 347.527, 12.876 347.725, 11.121 347.374 C 9.484 347.047, 7.949 347.273, 7.562 347.899 C 7.188 348.505, 7.293 349, 7.795 349 C 8.297 349, 9.945 350.147, 11.458 351.549 C 13.712 353.638, 14.685 353.938, 16.854 353.216 C 18.309 352.731, 19.667 351.473, 19.871 350.420 C 20.075 349.367, 21.308 347.517, 22.611 346.309 C 25.005 344.090, 24.976 341.588, 22.545 340.655 C 21.829 340.381, 20.739 340.661, 20.122 341.278 M 79.500 342 C 78.684 343.320, 79.777 345, 81.452 345 C 82.915 345, 84.219 342.552, 83.264 341.598 C 82.332 340.665, 80.183 340.895, 79.500 342 M 63.299 345.250 C 60.420 348.411, 59 351.445, 59 354.434 C 59 357.419, 58.711 357.512, 55.650 355.506 C 54.396 354.685, 51.262 353.723, 48.685 353.370 L 44 352.728 44 356.396 C 44 358.414, 44.634 361.582, 45.410 363.438 L 46.819 366.811 43.613 367.413 C 41.850 367.744, 38.853 369.350, 36.954 370.984 L 33.500 373.953 37.711 377.977 C 40.702 380.834, 42.787 382, 44.905 382 L 47.888 382 45.881 386.536 C 44.777 389.031, 44.015 392.294, 44.187 393.786 C 44.473 396.268, 44.832 396.480, 48.395 396.263 C 50.538 396.133, 53.800 395.135, 55.645 394.047 L 59 392.067 59 395.384 C 59 398.654, 63.970 407, 65.917 407 C 68.724 407, 74.913 395.287, 73.401 392.839 C 73.112 392.372, 74.996 393.118, 77.587 394.495 C 80.178 395.873, 83.632 397, 85.262 397 L 88.227 397 87.536 392.250 C 87.155 389.637, 86.204 386.503, 85.422 385.285 C 83.653 382.531, 83.632 381.922, 85.328 382.572 C 87.125 383.262, 90.871 381.600, 94.500 378.502 L 97.500 375.942 93.765 372.471 C 90.551 369.484, 87.820 368.397, 84.750 368.882 C 83.711 369.046, 83.747 368.919, 86 364.500 C 87.100 362.342, 88 359.097, 88 357.289 C 88 354.086, 87.889 354, 83.750 354.004 C 81.279 354.006, 78.139 354.837, 76.250 355.989 L 73 357.971 73 354.020 C 73 351.027, 72.248 349.213, 69.896 346.535 C 68.189 344.591, 66.468 343, 66.071 343 C 65.674 343, 64.426 344.012, 63.299 345.250 M 433.730 345.750 C 433.453 346.712, 432.903 348.286, 432.508 349.246 C 431.882 350.766, 432.224 350.911, 435.145 350.364 C 439.686 349.513, 440.250 348.801, 438.434 346.209 C 436.576 343.556, 434.421 343.346, 433.730 345.750 M 97 346.471 C 97 347.593, 101.946 358, 102.478 358 C 102.802 358, 104.615 356.452, 106.507 354.559 C 109.579 351.488, 109.748 351.055, 108.078 350.525 C 107.049 350.198, 105.823 350.059, 105.354 350.215 C 104.884 350.372, 103.487 349.488, 102.250 348.250 C 100.271 346.271, 97 345.163, 97 346.471 M 30.250 349.099 C 26.025 350.670, 28.233 360, 32.829 360 C 34.453 360, 34.293 358.981, 32.327 356.809 C 30.756 355.073, 30.785 354.782, 32.789 352.072 C 35.158 348.868, 34.125 347.659, 30.250 349.099 M 167.773 349.750 C 165.895 351.889, 164.563 355.953, 165.683 356.128 C 166.132 356.198, 167.400 356.356, 168.500 356.480 C 169.600 356.604, 171.572 357.045, 172.882 357.462 C 175.180 358.192, 175.239 358.083, 174.569 354.359 C 173.953 350.935, 171.827 348, 169.964 348 C 169.604 348, 168.618 348.788, 167.773 349.750 M 350.143 353.959 C 348.881 356.206, 346.192 358.888, 343.927 360.161 L 339.936 362.404 345.218 367.452 C 348.123 370.228, 350.969 373.353, 351.543 374.396 C 352.425 375.998, 352.928 376.109, 354.793 375.111 C 356.007 374.461, 357.755 372.708, 358.678 371.215 C 359.601 369.722, 362.189 366.750, 364.428 364.612 L 368.500 360.724 364.013 358.802 C 361.545 357.745, 358.250 355.333, 356.690 353.440 C 355.131 351.548, 353.520 350, 353.111 350 C 352.703 350, 351.367 351.782, 350.143 353.959 M 1.085 360.283 C 0.990 370.105, 2.202 373.391, 10.620 386.137 C 20.550 401.173, 39.563 414.138, 51.407 413.951 C 54.055 413.909, 53.620 413.563, 48.380 411.546 C 31.106 404.894, 22.312 395.125, 9.149 367.964 L 1.171 351.500 1.085 360.283 M 385 353.500 C 385 354.417, 385.484 355.005, 386.075 354.808 C 386.666 354.611, 387.150 354.022, 387.150 353.500 C 387.150 352.978, 386.666 352.389, 386.075 352.192 C 385.484 351.995, 385 352.583, 385 353.500 M 377.229 358.188 C 377.847 360.042, 380 360.349, 380 358.583 C 380 357.712, 379.288 357, 378.417 357 C 377.546 357, 377.011 357.534, 377.229 358.188 M 115.271 360.964 C 108.817 363.894, 104.912 371.771, 106.448 378.763 C 106.801 380.369, 108.403 383.216, 110.009 385.091 L 112.929 388.500 110.965 384.539 C 108.612 379.794, 108.493 376.881, 110.494 373.011 C 113.711 366.790, 120.231 365.140, 124.545 369.455 C 125.895 370.805, 127 372.985, 127 374.300 C 127 377.197, 124.134 380, 121.171 380 C 118.378 380, 118.400 381.466, 121.223 383.443 C 126.393 387.065, 134.897 383.873, 136.992 377.524 C 139.093 371.160, 135.857 364.498, 128.956 360.977 C 124.122 358.511, 120.681 358.508, 115.271 360.964 M 19.667 360.667 C 18.443 361.890, 18.981 365.055, 20.513 365.643 C 22.936 366.573, 25.152 364.152, 23.944 361.895 C 22.927 359.996, 20.915 359.418, 19.667 360.667 M 60.029 364.250 L 60 369 55.250 369.038 L 50.500 369.075 54.220 372.288 L 57.939 375.500 55.220 377.973 L 52.500 380.445 56 380.973 C 59.192 381.454, 59.544 381.841, 60 385.374 L 60.500 389.248 63.159 386.579 L 65.818 383.909 68.659 386.705 L 71.500 389.500 71.810 385.750 C 72.104 382.204, 72.308 382, 75.560 382 C 79.601 382, 79.774 381.453, 76.750 378.234 L 74.500 375.839 77.250 373.836 C 81.045 371.072, 80.695 370, 76 370 L 72 370 72 365.313 L 72 360.626 69.082 363.421 L 66.165 366.216 63.112 362.858 L 60.059 359.500 60.029 364.250 M 264.441 366.441 C 262.917 367.573, 262.730 368.258, 263.571 369.632 C 265.277 372.416, 266.794 372.371, 266.255 369.552 C 265.623 366.247, 268.346 365.098, 271.037 367.534 C 273.763 370.001, 273.540 374.551, 270.545 377.545 C 268.141 379.950, 264.371 380.740, 262.416 379.250 C 261.874 378.837, 262.484 379.512, 263.771 380.750 C 270.078 386.813, 280.315 378.868, 277.524 370.076 C 276.177 365.831, 268.235 363.624, 264.441 366.441 M 453.072 369.029 C 445.576 370.599, 446.372 371.658, 455.977 372.890 C 475.423 375.383, 488.929 384.038, 492.102 396.039 C 493.620 401.780, 492.652 407.071, 489.371 410.971 C 487.114 413.653, 487.033 414, 488.661 413.996 C 491.690 413.990, 496.939 410.217, 499.163 406.448 C 501.747 402.070, 502.436 402.605, 501.579 408.324 C 500.103 418.166, 491.393 426.456, 481.267 427.655 C 470.785 428.896, 461.959 421.340, 465.083 413.800 C 466.138 411.252, 466.649 410.960, 468.901 411.615 C 475.344 413.488, 481 410.915, 481 406.112 C 481 400.944, 473.488 397.198, 466.818 399.040 C 462.185 400.319, 457.201 405.411, 456.399 409.684 C 455.154 416.322, 456.846 422.110, 461.349 426.612 C 473.329 438.592, 495.812 433.227, 504.078 416.415 C 505.947 412.614, 506.490 409.914, 506.471 404.500 C 506.414 387.927, 497.263 376.296, 480.070 370.945 C 472.985 368.740, 459.142 367.757, 453.072 369.029 M 311.667 369.667 C 310.232 371.102, 311.132 374.856, 313.923 379.079 C 317.672 384.751, 318.332 387.566, 317.149 392.834 C 315.890 398.435, 317.676 398.016, 320.750 391.988 C 323.488 386.618, 323.596 380.909, 321.063 375.331 C 318.742 370.218, 313.983 367.350, 311.667 369.667 M 233 374.600 L 226.500 377.985 231.061 377.992 C 235.828 378, 240 375.418, 240 372.461 C 240 371.657, 239.887 371.048, 239.750 371.108 C 239.613 371.167, 236.575 372.738, 233 374.600 M 63.709 372.624 C 62.658 373.675, 62.850 376.789, 64.009 377.506 C 66.022 378.750, 69.128 376.911, 68.808 374.664 C 68.503 372.523, 65.151 371.182, 63.709 372.624 M 250 373.671 C 250 374.590, 249.255 376.165, 248.345 377.171 C 246.857 378.815, 246.850 379, 248.280 379 C 251.216 379, 255 377.063, 255 375.560 C 255 374.741, 254.130 373.605, 253.066 373.035 C 250.442 371.631, 250 371.722, 250 373.671 M 147 375 C 147 375.550, 147.450 376, 148 376 C 148.550 376, 149 375.550, 149 375 C 149 374.450, 148.550 374, 148 374 C 147.450 374, 147 374.450, 147 375 M 342 377.500 C 342 379.989, 342.402 381.033, 343.250 380.750 C 343.938 380.521, 344.500 379.058, 344.500 377.500 C 344.500 375.942, 343.938 374.479, 343.250 374.250 C 342.402 373.967, 342 375.011, 342 377.500 M 435.500 378 C 433.663 378.790, 433.703 378.867, 436 378.953 C 439.402 379.081, 448.885 383.076, 454.806 386.876 C 460.544 390.558, 463 390.865, 463 387.900 C 463 384.888, 457.082 379.394, 452.453 378.109 C 447.832 376.826, 438.374 376.765, 435.500 378 M 510.203 380.854 C 509.166 381.511, 509.217 381.935, 510.453 382.961 C 511.766 384.051, 512 383.925, 512 382.122 C 512 379.731, 511.987 379.722, 510.203 380.854 M 289.836 382.209 C 284.986 383.848, 285.131 388.153, 290.093 389.883 C 294.185 391.309, 294.909 393.845, 291.917 396.269 C 288.484 399.050, 281.295 398.093, 270.850 393.465 C 260.608 388.926, 250.590 385.432, 242 383.402 C 233.893 381.486, 224.795 382.253, 216.557 385.547 C 212.651 387.109, 210.219 387.597, 209.465 386.971 C 208.833 386.446, 208.020 386.313, 207.658 386.675 C 206.200 388.133, 207.179 389.908, 210.531 391.886 L 214.061 393.969 214.959 391.607 C 217.472 384.999, 236.311 385.607, 239.954 392.414 C 241.615 395.517, 240.973 398.205, 238.247 399.564 C 235.530 400.919, 236.356 402, 240.110 402 C 241.846 402, 243.470 401.167, 244.443 399.777 C 246.387 397.002, 246.394 395.279, 244.476 391.601 C 243.645 390.007, 243.168 388.499, 243.417 388.249 C 243.667 388, 246.181 388.564, 249.006 389.502 C 255.571 391.683, 261.237 397.126, 260.808 400.841 C 260.573 402.871, 260.027 403.421, 258.500 403.168 C 252.685 402.203, 251.581 402.492, 250.601 405.235 C 249.783 407.526, 250.008 408.380, 251.986 410.485 C 255.385 414.103, 260.255 413.899, 264.180 409.974 C 266.720 407.434, 267.134 406.351, 266.764 403.224 C 266.522 401.176, 265.948 398.634, 265.488 397.576 C 264.777 395.940, 264.940 395.779, 266.576 396.496 C 284.180 404.209, 296.090 404.794, 305.741 398.419 L 308.500 396.597 304.793 395.709 C 301.413 394.900, 301.135 394.577, 301.640 392.049 C 302.082 389.842, 299.872 383, 298.718 383 C 298.591 383, 297.140 382.619, 295.493 382.154 C 293.805 381.677, 291.339 381.701, 289.836 382.209 M 423.746 386.086 C 416.888 387.702, 410.199 391.894, 403.310 398.894 L 396.497 405.816 393.597 404.297 C 388.762 401.764, 381.428 402.983, 373.932 407.567 L 367.500 411.500 373.098 411.795 C 376.958 411.999, 380.307 411.456, 383.885 410.045 C 389.928 407.664, 394 407.396, 394 409.380 C 394 411.018, 381.001 429, 379.817 429 C 379.368 429, 379 428.290, 379 427.423 C 379 426.556, 377.685 424.531, 376.077 422.923 C 373.741 420.587, 372.279 420, 368.799 420 C 364.151 420, 360 422.166, 360 424.592 C 360 425.744, 360.427 425.842, 361.934 425.035 C 367.223 422.205, 373.013 425.461, 372.984 431.250 C 372.943 439.354, 364.585 447.183, 351.622 451.260 C 342.175 454.231, 319.745 454.478, 310.741 451.710 C 306.422 450.382, 304.485 450.205, 302.991 451.005 C 299.855 452.683, 300.563 453.479, 307.250 455.794 C 317.231 459.250, 322.735 460.114, 334.480 460.069 C 361.761 459.964, 375.676 451.104, 396.058 420.863 C 401.752 412.413, 408.456 403.457, 410.956 400.960 C 419.766 392.157, 432.119 388.445, 437.875 392.871 C 441.168 395.403, 441.036 399.762, 437.584 402.515 L 434.917 404.641 437.455 405.797 C 442.912 408.284, 448.733 402.905, 447.670 396.357 C 446.258 387.653, 435.923 383.216, 423.746 386.086 M 34 389 C 34 389.550, 34.675 390, 35.500 390 C 36.325 390, 37 389.550, 37 389 C 37 388.450, 36.325 388, 35.500 388 C 34.675 388, 34 388.450, 34 389 M 155.500 391.598 C 145.328 393.851, 135.617 398, 119.635 406.921 C 101.827 416.861, 92.612 421.492, 82.536 425.564 C 75.520 428.400, 71.850 431, 74.863 431 C 75.429 431, 78.627 432.602, 81.968 434.560 C 98.252 444.105, 129.931 456.954, 149.815 462.081 C 163.686 465.658, 188.619 469.004, 201.288 468.989 C 212.179 468.977, 231.765 466.069, 244.844 462.522 C 260.972 458.149, 295.348 442.221, 304.241 435.001 C 306.459 433.200, 306.318 433.176, 296.500 433.679 C 271.160 434.977, 243.466 426.062, 205.445 404.368 C 197.775 399.991, 190.150 395.819, 188.500 395.097 C 178.102 390.543, 166.035 389.263, 155.500 391.598 M 97 393.512 C 97 394.552, 98.078 395, 100.583 395 C 105.102 395, 104.747 392.653, 100.173 392.282 C 97.915 392.099, 97 392.454, 97 393.512 M 150.459 400.880 C 139.992 405.634, 136.204 418.475, 143.089 425.865 C 147.605 430.713, 156.520 431.571, 160.545 427.545 C 163.550 424.541, 163.614 423.050, 160.884 419.580 C 157.951 415.851, 154.030 416.358, 152 420.728 C 150.246 424.503, 147.750 424.909, 145.557 421.777 C 139.575 413.237, 151.375 401.870, 162.979 404.994 C 171.015 407.158, 177.119 416.349, 175.410 423.713 C 173.553 431.717, 166.679 438.709, 158.500 440.912 C 145.093 444.522, 119.331 438.375, 108.680 429.024 L 105.023 425.813 101.012 428.991 C 95.351 433.474, 95.451 438.944, 101.117 434.756 L 104.007 432.619 111.754 436.692 C 137.749 450.360, 163.649 450.261, 177.693 436.439 C 183.600 430.627, 190.677 427.593, 201.123 426.398 C 215.927 424.704, 229.565 436.495, 226.116 448.007 C 224.736 452.613, 219.784 456.841, 214.843 457.629 C 210.403 458.338, 204.500 454.537, 204.500 450.970 C 204.500 449.052, 205.128 448.409, 207.393 448.010 C 213.125 447, 213.602 440.103, 208.074 438.176 C 200.453 435.519, 193.163 442.169, 194.727 450.351 C 195.371 453.721, 199.461 457.810, 204.500 460.121 C 218.629 466.603, 235.003 454.814, 232.494 439.965 C 231.573 434.515, 226.805 427.547, 221.803 424.341 C 219.437 422.824, 217.305 421.444, 217.067 421.275 C 216.828 421.105, 217.166 420.434, 217.817 419.783 C 219.881 417.719, 219.104 416.766, 215.750 417.252 C 209.471 418.160, 192.450 423.255, 187.750 425.632 L 183 428.034 183 421.418 C 183 413.453, 181.182 409.168, 175.878 404.628 C 169.176 398.891, 158.350 397.295, 150.459 400.880 M 0.158 402 C 0.158 403.375, 0.385 403.938, 0.662 403.250 C 0.940 402.563, 0.940 401.438, 0.662 400.750 C 0.385 400.063, 0.158 400.625, 0.158 402 M 185 400.391 C 185 400.606, 185.890 402.743, 186.978 405.141 C 188.066 407.538, 188.966 411.649, 188.978 414.276 L 189 419.051 192 417.500 C 193.650 416.647, 195 415.489, 195 414.927 C 195 414.364, 196.180 412.811, 197.622 411.474 L 200.245 409.044 197.683 408.070 C 196.274 407.534, 194.631 406.179, 194.031 405.058 C 192.607 402.397, 185 398.465, 185 400.391 M 50.500 406 C 50.840 406.550, 51.541 407, 52.059 407 C 52.577 407, 53 406.550, 53 406 C 53 405.450, 52.298 405, 51.441 405 C 50.584 405, 50.160 405.450, 50.500 406 M 427.685 412.534 C 426.758 414.478, 426 416.953, 426 418.034 C 426 420.368, 425.720 420.413, 422.200 418.640 C 420.715 417.893, 418.266 416.985, 416.758 416.623 L 414.016 415.966 416.045 421.113 C 417.160 423.944, 417.944 426.347, 417.787 426.453 C 417.629 426.558, 415.367 427.435, 412.760 428.401 C 410.154 429.367, 407.806 430.504, 407.545 430.928 C 407.283 431.352, 409.528 432.534, 412.534 433.556 C 415.540 434.578, 418 435.658, 417.999 435.957 C 417.999 436.256, 417.106 438.849, 416.015 441.719 L 414.032 446.939 416.523 445.991 C 417.893 445.471, 420.338 444.359, 421.957 443.522 C 425.752 441.560, 425.667 441.538, 426.459 444.695 C 426.831 446.177, 427.813 448.989, 428.641 450.945 L 430.147 454.500 432.032 451 C 433.068 449.075, 433.942 446.825, 433.973 446 C 434.116 442.261, 435.572 441.741, 439.825 443.910 C 442.077 445.060, 444.419 446, 445.028 446 C 446.240 446, 445.653 443.284, 443.452 438.705 C 442.213 436.128, 442.280 435.843, 444.304 435.067 C 445.512 434.604, 448.075 433.555, 450 432.737 L 453.500 431.249 448.667 429.125 C 446.009 427.956, 443.421 427, 442.917 427 C 441.685 427, 441.698 426.937, 444.084 421.544 C 445.230 418.953, 445.960 416.627, 445.707 416.374 C 445.454 416.121, 442.998 416.769, 440.248 417.814 L 435.249 419.713 433.029 414.357 C 431.808 411.410, 430.485 409, 430.090 409 C 429.694 409, 428.612 410.590, 427.685 412.534 M 9.885 412.870 C 8.573 413.898, 6.043 415.058, 4.261 415.447 C -0.133 416.406, -0.374 417.233, 3.068 419.540 C 4.813 420.709, 5.995 422.384, 5.997 423.691 C 6.001 426.751, 7.665 427.450, 10.509 425.586 C 11.840 424.714, 14.745 424, 16.965 424 C 21.741 424, 22.021 422.846, 18.132 419.194 C 16.555 417.712, 14.971 415.262, 14.613 413.750 C 13.845 410.505, 13.082 410.363, 9.885 412.870 M 403 413.979 C 401.682 414.812, 401.703 415.131, 403.172 416.601 C 405.528 418.957, 408.467 417.742, 407.008 415.015 C 405.804 412.765, 405.177 412.603, 403 413.979 M 120.345 417.024 C 119.999 418.757, 118.497 420.934, 116.829 422.122 C 113.600 424.421, 114.175 426.325, 118.422 427.391 C 119.708 427.714, 120.998 428.883, 121.287 429.989 C 121.837 432.094, 124.438 432.718, 125.500 431 C 125.840 430.450, 127.216 430, 128.559 430 C 130.505 430, 131 429.486, 131 427.465 C 131 426.070, 131.714 423.840, 132.586 422.509 C 134.472 419.631, 133.745 418, 130.576 418 C 129.307 418, 127.126 417.100, 125.727 416 C 122.241 413.258, 121.053 413.484, 120.345 417.024 M 95.461 426.040 C 92.802 428.763, 91.919 430.319, 92.630 431.030 C 93.698 432.098, 98.202 428.360, 100.084 424.843 C 101.891 421.467, 99.261 422.148, 95.461 426.040 M 425.073 427.635 C 422.538 430.857, 422.538 430.730, 425.064 434.874 C 426.974 438.006, 427.408 438.209, 431.143 437.708 C 435.982 437.059, 435.663 437.348, 436.505 432.844 C 437.056 429.890, 436.785 428.785, 435.094 427.094 C 432.126 424.126, 427.642 424.368, 425.073 427.635 M 345.312 427.250 C 343.337 429.898, 340.806 436.877, 341.446 437.913 C 342.545 439.690, 349.500 439.210, 351.289 437.233 C 352.766 435.601, 352.664 435.105, 349.942 430.733 C 346.688 425.505, 346.641 425.469, 345.312 427.250 M 247.783 432.750 C 246.944 433.712, 245.733 435.512, 245.093 436.750 C 244.453 437.988, 243.340 439, 242.620 439 C 241.899 439, 240.504 439.891, 239.519 440.979 C 237.788 442.892, 237.808 443.026, 240.114 444.946 C 241.426 446.039, 242.826 446.948, 243.224 446.967 C 243.623 446.985, 244.636 448.328, 245.475 449.952 C 246.816 452.545, 247.458 452.864, 250.751 452.574 C 253.826 452.304, 254.680 451.736, 255.500 449.416 C 256.050 447.860, 258.040 445.172, 259.922 443.442 L 263.344 440.297 258.916 438.606 C 256.122 437.539, 253.861 435.823, 252.790 433.957 C 250.832 430.544, 249.903 430.320, 247.783 432.750 M 399.750 437.107 C 398.788 437.653, 398 438.935, 398 439.956 C 398 441.271, 397.460 441.671, 396.149 441.329 C 393.417 440.614, 390.741 443.647, 392.010 446.018 C 393.570 448.934, 397.133 451, 400.601 451 C 403.136 451, 403.992 450.433, 404.951 448.119 C 407.551 441.842, 404.139 434.620, 399.750 437.107 M 271.362 439.500 C 270.569 441.564, 271.644 444, 273.346 444 C 274.121 444, 275.315 443.325, 276 442.500 C 276.993 441.303, 276.993 440.697, 276 439.500 C 275.315 438.675, 274.121 438, 273.346 438 C 272.571 438, 271.678 438.675, 271.362 439.500 M 324.133 441.542 C 322.526 442.894, 320.601 444.046, 319.856 444.102 C 318.275 444.222, 324.555 446.038, 327.500 446.313 C 329.058 446.459, 329.567 445.810, 329.804 443.378 C 330.214 439.162, 327.864 438.402, 324.133 441.542 M 458.452 444.750 C 458.571 448.176, 458.829 448.500, 461.432 448.500 C 463.109 448.500, 464.738 447.754, 465.391 446.687 C 466.294 445.211, 466.062 444.515, 464.139 442.937 C 460.257 439.752, 458.300 440.376, 458.452 444.750 M 66.733 443.750 C 64.424 446.312, 63.551 450.754, 65.011 452.513 C 66.492 454.297, 72.119 454.481, 73.800 452.800 C 75.651 450.949, 75.222 446.222, 73 444 C 70.539 441.539, 68.789 441.469, 66.733 443.750 M 46.500 447 C 46.101 447.646, 46.224 448.624, 46.774 449.174 C 47.441 449.841, 48.016 449.783, 48.500 449 C 48.899 448.354, 48.776 447.376, 48.226 446.826 C 47.559 446.159, 46.984 446.217, 46.500 447 M 174.550 446.728 C 173.119 447.092, 174.162 447.859, 178.470 449.612 C 185.217 452.357, 188 452.624, 188 450.526 C 188 447.389, 180.395 445.242, 174.550 446.728 M 153.029 451.745 L 147.558 452.120 155.529 455.737 C 161.975 458.663, 165.030 459.439, 171.500 459.793 L 179.500 460.231 175.500 457.464 C 169.887 453.582, 163.939 451.015, 161 451.207 C 159.625 451.297, 156.038 451.539, 153.029 451.745 M 376.750 456.077 C 373.241 458.128, 374.880 463.113, 380.155 466.434 C 382.744 468.064, 382.900 468.027, 386.405 464.949 C 391.760 460.248, 390.725 455.758, 384.368 456.108 C 382.790 456.196, 380.825 455.994, 380 455.660 C 379.175 455.327, 377.712 455.514, 376.750 456.077 M 290.961 462.786 C 291.350 464.913, 291.996 467.185, 292.398 467.834 C 293.769 470.054, 299.302 472.209, 303.902 472.316 C 309.746 472.452, 318 471.129, 318 470.056 C 318 469.605, 314.063 468.034, 309.250 466.565 C 302.026 464.361, 297.340 462.491, 290.877 459.232 C 290.534 459.059, 290.572 460.659, 290.961 462.786 M 88.359 461.507 C 88.011 462.414, 88.383 463.812, 89.186 464.614 C 91.187 466.615, 94.188 465.321, 93.803 462.623 C 93.424 459.965, 89.277 459.115, 88.359 461.507 M 112.527 467.616 C 111.638 468.505, 111.070 469.710, 111.265 470.295 C 111.852 472.057, 114.623 473.359, 116.364 472.691 C 118.457 471.887, 118.497 467.405, 116.418 466.607 C 114.298 465.793, 114.368 465.775, 112.527 467.616 M 352.685 467.378 C 352.394 468.136, 352.626 469.226, 353.200 469.800 C 354.688 471.288, 357 470.128, 357 467.893 C 357 465.672, 353.500 465.254, 352.685 467.378 M 274.435 474.424 C 272.443 475.881, 273.045 478.696, 275.555 479.659 C 277.625 480.454, 280.254 477.825, 279.459 475.755 C 278.587 473.481, 276.485 472.925, 274.435 474.424 M 335.694 474.639 C 334.895 475.438, 335.798 477, 337.059 477 C 337.577 477, 338 476.325, 338 475.500 C 338 473.954, 336.820 473.513, 335.694 474.639 M 250.106 478.801 C 248.770 481.298, 250.873 484.364, 253.566 483.845 C 256.494 483.281, 256.283 477.611, 253.318 477.189 C 251.962 476.996, 250.746 477.607, 250.106 478.801" stroke="none" fill="#ffffff" fill-rule="evenodd"/>
</svg>