<?xml version="1.0" encoding="UTF-8"?>
<svg version="1.1" xmlns="http://www.w3.org/2000/svg" width="128" height="128">
<path d="M0 0 C42.24 0 84.48 0 128 0 C128 42.24 128 84.48 128 128 C85.76 128 43.52 128 0 128 C0 85.76 0 43.52 0 0 Z " fill="#0E739D" transform="translate(0,0)"/>
<path d="M0 0 C0 16.83 0 33.66 0 51 C-42.24 51 -84.48 51 -128 51 C-128 35.82 -128 20.64 -128 5 C-120.12495779 2.37498593 -107.94342824 2.74663825 -100.1875 5.8671875 C-98.4297129 6.7774701 -96.70791344 7.75708197 -95 8.7578125 C-87.54918731 13.09826235 -81.71991221 15.56404775 -73 14 C-72.01 13.34 -71.02 12.68 -70 12 C-70.66 11.67 -71.32 11.34 -72 11 C-72 10.01 -72 9.02 -72 8 C-73.32 8 -74.64 8 -76 8 C-75.505 9.98 -75.505 9.98 -75 12 C-75.99 11.67 -76.98 11.34 -78 11 C-77.8125 9.1875 -77.8125 9.1875 -77 7 C-74.5 5.375 -74.5 5.375 -72 4 C-71.67 3.34 -71.34 2.68 -71 2 C-71.78375 2.495 -72.5675 2.99 -73.375 3.5 C-76 5 -76 5 -78 5 C-78.33 7.97 -78.66 10.94 -79 14 C-79.99 13.67 -80.98 13.34 -82 13 C-81.93268212 9.63410624 -81.80371347 6.98813498 -79.62109375 4.3046875 C-74.72299959 -0.05647911 -69.99068937 -3.09968965 -63.25 -2.875 C-58.54576271 -1.60847458 -58.54576271 -1.60847458 -57 1 C-57.1875 3.125 -57.1875 3.125 -58 5 C-58.66 5.33 -59.32 5.66 -60 6 C-60 4.02 -60 2.04 -60 0 C-63.3 0 -66.6 0 -70 0 C-70 0.66 -70 1.32 -70 2 C-68.02 1.67 -66.04 1.34 -64 1 C-63.01 3.475 -63.01 3.475 -62 6 C-63.32 6.33 -64.64 6.66 -66 7 C-66 7.99 -66 8.98 -66 10 C-61.34185303 8.37977497 -58.04337996 6.35672958 -54.25 3.1875 C-38.14932305 -10.13550291 -17.39627332 -13.04720499 0 0 Z " fill="#E0E3E6" transform="translate(128,77)"/>
<path d="M0 0 C1.7290774 -0.02725341 3.45828176 -0.04650987 5.1875 -0.0625 C6.15042969 -0.07410156 7.11335938 -0.08570312 8.10546875 -0.09765625 C11 0 11 0 16 1 C16 13.21 16 25.42 16 38 C-26.24 38 -68.48 38 -112 38 C-112 32.06 -112 26.12 -112 20 C-98.14875878 17.40289227 -91.62295171 18.0611967 -79.64941406 25.08789062 C-76.22157123 26.98345321 -72.86668139 27.69173771 -69 28 C-67.52853516 28.11988281 -67.52853516 28.11988281 -66.02734375 28.2421875 C-48.52848104 28.951319 -35.14365099 20.15929206 -21 11 C-18.33892333 9.32419539 -15.66960456 7.66220661 -13 6 C-12.01 6.99 -12.01 6.99 -11 8 C-12.63412443 9.70840281 -13.86906094 10.93453047 -16 12 C-15.34 12 -14.68 12 -14 12 C-14.66 13.65 -15.32 15.3 -16 17 C-17.485 16.505 -17.485 16.505 -19 16 C-19.0825 16.78375 -19.165 17.5675 -19.25 18.375 C-20 21 -20 21 -21.65625 22.15625 C-24.6303886 23.2269399 -27.0964266 23.19355594 -30.25 23.125 C-31.32765625 23.10695313 -32.4053125 23.08890625 -33.515625 23.0703125 C-34.33546875 23.04710938 -35.1553125 23.02390625 -36 23 C-32.30506957 24.84746521 -28.04115396 24.3419438 -24 24 C-18.63212102 22.11130184 -15.54008416 19.08016831 -13 14 C-12.34 13.67 -11.68 13.34 -11 13 C-10.401875 12.154375 -9.80375 11.30875 -9.1875 10.4375 C-7 8 -7 8 -4.25 7.6875 C-3.13625 7.8421875 -3.13625 7.8421875 -2 8 C-2.33 9.98 -2.66 11.96 -3 14 C-4.32 14.33 -5.64 14.66 -7 15 C-7.33 16.98 -7.66 18.96 -8 21 C-6.700625 20.9690625 -6.700625 20.9690625 -5.375 20.9375 C-2.14096352 20.99738956 0.82799897 21.39580933 4 22 C3.01 21.01 3.01 21.01 2 20 C1.67 20.66 1.34 21.32 1 22 C0.01 20.515 0.01 20.515 -1 19 C-0.34 19 0.32 19 1 19 C1 18.34 1 17.68 1 17 C0.34 17 -0.32 17 -1 17 C-0.505 15.515 -0.505 15.515 0 14 C0.66 14 1.32 14 2 14 C2.99 15.485 2.99 15.485 4 17 C7.42201828 17.37331109 9.90185629 17.63763183 12.9375 15.875 C14.52990283 13.06487736 14.45319325 11.17235276 14 8 C10.92238999 3.10380226 5.28635876 2.33167816 0 1 C0 0.67 0 0.34 0 0 Z " fill="#0F5881" transform="translate(112,90)"/>
<path d="M0 0 C0.76183594 0.44214844 1.52367188 0.88429688 2.30859375 1.33984375 C3.74525391 2.17322266 3.74525391 2.17322266 5.2109375 3.0234375 C12.55199847 7.50910551 12.55199847 7.50910551 15.0625 10.265625 C18.41140932 13.35826996 22.27146862 15.09212936 26.37109375 17.02734375 C27.21712158 17.42945068 28.06314941 17.83155762 28.93481445 18.24584961 C35.01386892 21.01772175 40.54113338 22.72003815 47.30859375 22.33984375 C44.78425461 25.30659285 42.06963864 26.49946559 38.49609375 27.96484375 C37.47902344 28.39023438 36.46195312 28.815625 35.4140625 29.25390625 C24.77217816 32.97521926 13.42195826 32.38567057 3.02734375 28.3125 C0.30412132 27.23721677 0.30412132 27.23721677 -2.72265625 26.8984375 C-5.69140625 26.33984375 -5.69140625 26.33984375 -7.984375 24.7578125 C-12.01264179 22.64776799 -15.57108465 23.25814653 -20.00390625 23.65234375 C-22.87078125 23.87921875 -25.73765625 24.10609375 -28.69140625 24.33984375 C-28.69140625 15.75984375 -28.69140625 7.17984375 -28.69140625 -1.66015625 C-20.24009829 -4.4772589 -8.01524688 -3.90343912 0 0 Z " fill="#E6E7E9" transform="translate(28.69140625,85.66015625)"/>
<path d="M0 0 C4.76673181 2.44183231 4.76673181 2.44183231 6.70703125 4.38671875 C7.09765625 6.8671875 7.09765625 6.8671875 6.95703125 9.57421875 C6.9209375 10.47527344 6.88484375 11.37632813 6.84765625 12.3046875 C6.80125 12.99175781 6.75484375 13.67882812 6.70703125 14.38671875 C5.59585938 14.3403125 4.4846875 14.29390625 3.33984375 14.24609375 C-4.56652834 14.01839308 -10.9226393 13.96196644 -18.16796875 17.5234375 C-20.51188646 18.47565407 -21.8674955 18.45676286 -24.35546875 18.19921875 C-30.10967636 18.47322864 -33.14343781 21.62140364 -37.29296875 25.38671875 C-38.29296875 23.38671875 -38.29296875 23.38671875 -37.54296875 20.07421875 C-36.88652339 16.28760331 -36.88652339 16.28760331 -39.41796875 13.51171875 C-42.26847724 11.40482117 -43.76283693 10.38671875 -47.29296875 10.38671875 C-49.22951823 11.40642193 -49.22951823 11.40642193 -50.29296875 13.38671875 C-50.54366788 16.01242579 -50.54366788 16.01242579 -50.29296875 18.38671875 C-48.64296875 18.38671875 -46.99296875 18.38671875 -45.29296875 18.38671875 C-45.29296875 17.39671875 -45.29296875 16.40671875 -45.29296875 15.38671875 C-46.61296875 15.71671875 -47.93296875 16.04671875 -49.29296875 16.38671875 C-48.96296875 15.06671875 -48.63296875 13.74671875 -48.29296875 12.38671875 C-42.89296875 11.90671875 -42.89296875 11.90671875 -40.41796875 13.88671875 C-38.81554181 17.4476675 -38.73403063 20.54500322 -39.29296875 24.38671875 C-40.35546875 26.88671875 -40.35546875 26.88671875 -42.29296875 28.38671875 C-45.85546875 28.76171875 -45.85546875 28.76171875 -49.29296875 28.38671875 C-49.95296875 27.72671875 -50.61296875 27.06671875 -51.29296875 26.38671875 C-49.64296875 26.05671875 -47.99296875 25.72671875 -46.29296875 25.38671875 C-46.64083583 23.4113513 -46.64083583 23.4113513 -47.29296875 21.38671875 C-47.95296875 21.05671875 -48.61296875 20.72671875 -49.29296875 20.38671875 C-48.96296875 21.70671875 -48.63296875 23.02671875 -48.29296875 24.38671875 C-52.3490304 23.91871164 -55.75885554 23.50718667 -59.29296875 21.38671875 C-58.63296875 21.05671875 -57.97296875 20.72671875 -57.29296875 20.38671875 C-57.29296875 19.72671875 -57.29296875 19.06671875 -57.29296875 18.38671875 C-55.97296875 18.05671875 -54.65296875 17.72671875 -53.29296875 17.38671875 C-53.29296875 18.37671875 -53.29296875 19.36671875 -53.29296875 20.38671875 C-52.96296875 19.39671875 -52.63296875 18.40671875 -52.29296875 17.38671875 C-54.60296875 17.38671875 -56.91296875 17.38671875 -59.29296875 17.38671875 C-54.80117827 12.67505042 -49.59718637 9.12329311 -44.29296875 5.38671875 C-43.43058594 4.77570313 -42.56820312 4.1646875 -41.6796875 3.53515625 C-40.49826172 2.71917969 -40.49826172 2.71917969 -39.29296875 1.88671875 C-38.59171875 1.40203125 -37.89046875 0.91734375 -37.16796875 0.41796875 C-35.29296875 -0.61328125 -35.29296875 -0.61328125 -32.29296875 -0.61328125 C-32.62296875 0.70671875 -32.95296875 2.02671875 -33.29296875 3.38671875 C-33.95296875 3.38671875 -34.61296875 3.38671875 -35.29296875 3.38671875 C-34.96296875 3.71671875 -34.63296875 4.04671875 -34.29296875 4.38671875 C-34.25233043 6.0528899 -34.25024775 7.7205997 -34.29296875 9.38671875 C-35.61296875 9.71671875 -36.93296875 10.04671875 -38.29296875 10.38671875 C-38.62296875 9.39671875 -38.95296875 8.40671875 -39.29296875 7.38671875 C-38.30296875 7.38671875 -37.31296875 7.38671875 -36.29296875 7.38671875 C-36.62296875 6.72671875 -36.95296875 6.06671875 -37.29296875 5.38671875 C-38.28296875 5.38671875 -39.27296875 5.38671875 -40.29296875 5.38671875 C-39.96296875 7.03671875 -39.63296875 8.68671875 -39.29296875 10.38671875 C-36.96224996 10.80542428 -36.96224996 10.80542428 -34.29296875 10.38671875 C-31.95666127 7.98812831 -31.95666127 7.98812831 -30.29296875 5.38671875 C-27.29296875 9.01171875 -27.29296875 9.01171875 -27.29296875 12.38671875 C-25.97296875 12.38671875 -24.65296875 12.38671875 -23.29296875 12.38671875 C-22.79796875 13.37671875 -22.79796875 13.37671875 -22.29296875 14.38671875 C-21.30296875 14.05671875 -20.31296875 13.72671875 -19.29296875 13.38671875 C-17.89857211 13.32006499 -16.50127 13.30133676 -15.10546875 13.32421875 C-13.21828125 13.35515625 -13.21828125 13.35515625 -11.29296875 13.38671875 C-11.29296875 12.72671875 -11.29296875 12.06671875 -11.29296875 11.38671875 C-12.28296875 11.71671875 -13.27296875 12.04671875 -14.29296875 12.38671875 C-14.78796875 10.90171875 -14.78796875 10.90171875 -15.29296875 9.38671875 C-14.63296875 8.39671875 -13.97296875 7.40671875 -13.29296875 6.38671875 C-13.95296875 5.72671875 -14.61296875 5.06671875 -15.29296875 4.38671875 C-15.29296875 3.06671875 -15.29296875 1.74671875 -15.29296875 0.38671875 C-19.90804649 -0.65542816 -19.90804649 -0.65542816 -24.29296875 0.38671875 C-24.29296875 -0.27328125 -24.29296875 -0.93328125 -24.29296875 -1.61328125 C-25.61296875 -1.94328125 -26.93296875 -2.27328125 -28.29296875 -2.61328125 C-18.7800807 -5.78424393 -8.96196856 -3.75388117 0 0 Z " fill="#0E4879" transform="translate(121.29296875,74.61328125)"/>
<path d="M0 0 C12.88970752 7.48644629 12.88970752 7.48644629 14.3203125 10.34765625 C13.77246094 10.39921875 13.22460938 10.45078125 12.66015625 10.50390625 C5.74010389 11.4940926 0.39685395 14.16954216 -5.58813477 17.60351562 C-10.40611561 20.34765625 -10.40611561 20.34765625 -13.6796875 20.34765625 C-14.3396875 19.35765625 -14.9996875 18.36765625 -15.6796875 17.34765625 C-16.6078125 16.95578125 -17.5359375 16.56390625 -18.4921875 16.16015625 C-22.61147143 13.81781833 -24.89858611 10.74281193 -26.6796875 6.34765625 C-26.3496875 5.35765625 -26.0196875 4.36765625 -25.6796875 3.34765625 C-25.0196875 3.34765625 -24.3596875 3.34765625 -23.6796875 3.34765625 C-23.6796875 2.35765625 -23.6796875 1.36765625 -23.6796875 0.34765625 C-25.3296875 1.00765625 -26.9796875 1.66765625 -28.6796875 2.34765625 C-28.6796875 1.02765625 -28.6796875 -0.29234375 -28.6796875 -1.65234375 C-20.23304662 -4.46789071 -8.01383013 -3.89522405 0 0 Z " fill="#1D507E" transform="translate(28.6796875,85.65234375)"/>
<path d="M0 0 C2.28506008 1.44520506 3.8540151 2.65724896 5.07421875 5.09765625 C5.45925251 8.63996686 5.49357834 10.46022967 3.51171875 13.47265625 C0.25739372 15.64220627 -2.09708539 15.39217132 -5.92578125 15.09765625 C-6.58578125 13.77765625 -7.24578125 12.45765625 -7.92578125 11.09765625 C-8.91578125 12.08765625 -9.90578125 13.07765625 -10.92578125 14.09765625 C-10.26578125 14.09765625 -9.60578125 14.09765625 -8.92578125 14.09765625 C-8.92578125 15.41765625 -8.92578125 16.73765625 -8.92578125 18.09765625 C-7.60578125 18.09765625 -6.28578125 18.09765625 -4.92578125 18.09765625 C-5.25578125 18.75765625 -5.58578125 19.41765625 -5.92578125 20.09765625 C-11.67578125 19.22265625 -11.67578125 19.22265625 -13.92578125 18.09765625 C-14.25578125 18.75765625 -14.58578125 19.41765625 -14.92578125 20.09765625 C-14.92578125 19.43765625 -14.92578125 18.77765625 -14.92578125 18.09765625 C-15.91578125 18.09765625 -16.90578125 18.09765625 -17.92578125 18.09765625 C-17.92578125 17.10765625 -17.92578125 16.11765625 -17.92578125 15.09765625 C-18.58578125 14.76765625 -19.24578125 14.43765625 -19.92578125 14.09765625 C-19.26578125 14.09765625 -18.60578125 14.09765625 -17.92578125 14.09765625 C-17.59578125 13.10765625 -17.26578125 12.11765625 -16.92578125 11.09765625 C-15.61311607 9.74397029 -14.280108 8.40966029 -12.92578125 7.09765625 C-12.59578125 6.43765625 -12.26578125 5.77765625 -11.92578125 5.09765625 C-16.75020309 6.36712139 -16.75020309 6.36712139 -19.92578125 10.09765625 C-20.25578125 10.75765625 -20.58578125 11.41765625 -20.92578125 12.09765625 C-21.58578125 11.76765625 -22.24578125 11.43765625 -22.92578125 11.09765625 C-23.23515625 12.18046875 -23.23515625 12.18046875 -23.55078125 13.28515625 C-25.40712169 17.08221625 -27.52045928 18.59578705 -30.92578125 21.09765625 C-33.85232652 22.07317134 -35.87233121 22.26243713 -38.92578125 22.28515625 C-40.22515625 22.30642578 -40.22515625 22.30642578 -41.55078125 22.328125 C-43.92578125 22.09765625 -43.92578125 22.09765625 -46.92578125 20.09765625 C-43.68122818 18.47537972 -40.22276471 19.1375153 -36.65234375 19.2578125 C-33.8266988 19.09183622 -32.26797961 18.6573229 -29.92578125 17.09765625 C-29.12049236 15.04764754 -29.12049236 15.04764754 -28.92578125 13.09765625 C-29.91578125 13.42765625 -30.90578125 13.75765625 -31.92578125 14.09765625 C-31.92578125 13.43765625 -31.92578125 12.77765625 -31.92578125 12.09765625 C-29.45078125 12.59265625 -29.45078125 12.59265625 -26.92578125 13.09765625 C-25.93578125 11.77765625 -24.94578125 10.45765625 -23.92578125 9.09765625 C-25.90578125 9.42765625 -27.88578125 9.75765625 -29.92578125 10.09765625 C-27.92578125 8.09765625 -27.92578125 8.09765625 -25.36328125 7.22265625 C-24.15671875 6.66578125 -24.15671875 6.66578125 -22.92578125 6.09765625 C-22.80203125 5.46214844 -22.67828125 4.82664062 -22.55078125 4.171875 C-21.92578125 2.09765625 -21.92578125 2.09765625 -19.9921875 0.796875 C-13.19937905 -1.94780111 -6.8932945 -3.22992095 0 0 Z " fill="#16507F" transform="translate(121.92578125,92.90234375)"/>
<path d="M0 0 C1.32 0.66 2.64 1.32 4 2 C4 3.32 4 4.64 4 6 C5.65 5.34 7.3 4.68 9 4 C8.67 4.99 8.34 5.98 8 7 C8.845625 6.34 9.69125 5.68 10.5625 5 C14.43436947 2.74727595 16.60278797 2.64822304 21 3 C21.495 4.98 21.495 4.98 22 7 C20.68 7.33 19.36 7.66 18 8 C18.33 7.01 18.66 6.02 19 5 C18.01 5.33 17.02 5.66 16 6 C16.495 7.98 16.495 7.98 17 10 C15.94941406 10.03738281 14.89882812 10.07476562 13.81640625 10.11328125 C-2.73033834 10.82730218 -13.2729162 15.86762032 -26.02734375 26.71484375 C-28 28 -28 28 -32 28 C-32 27.01 -32 26.02 -32 25 C-31.01 24.67 -30.02 24.34 -29 24 C-29 23.34 -29 22.68 -29 22 C-31.95377498 19.63019987 -31.95377498 19.63019987 -36 20 C-36 19.34 -36 18.68 -36 18 C-28.25 16.875 -28.25 16.875 -26 18 C-25.375 20.5625 -25.375 20.5625 -25 23 C-24.4465236 20.92446352 -24 19.15634036 -24 17 C-28.455 16.01 -28.455 16.01 -33 15 C-29 13 -29 13 -26 13 C-25.67 12.01 -25.34 11.02 -25 10 C-24.71125 10.928125 -24.4225 11.85625 -24.125 12.8125 C-23.1125 16.09791667 -23.1125 16.09791667 -21 19 C-21.10699219 18.38511719 -21.21398437 17.77023438 -21.32421875 17.13671875 C-21.44410156 16.32847656 -21.56398438 15.52023438 -21.6875 14.6875 C-21.81511719 13.88699219 -21.94273438 13.08648437 -22.07421875 12.26171875 C-22 10 -22 10 -20.6875 8.1875 C-19 7 -19 7 -16.3125 7.3125 C-15.549375 7.539375 -14.78625 7.76625 -14 8 C-14 9.32 -14 10.64 -14 12 C-14.99 12 -15.98 12 -17 12 C-17 12.33 -17 12.66 -17 13 C-15.35 12.67 -13.7 12.34 -12 12 C-12 10.35 -12 8.7 -12 7 C-14.97 6.67 -17.94 6.34 -21 6 C-18.6870518 3.6870518 -17.52095125 3.50419025 -14.375 2.875 C-13.55773437 2.70742188 -12.74046875 2.53984375 -11.8984375 2.3671875 C-11.27195312 2.24601562 -10.64546875 2.12484375 -10 2 C-9.34 3.98 -8.68 5.96 -8 8 C-6.68 8 -5.36 8 -4 8 C-3.67 7.01 -3.34 6.02 -3 5 C-3.99 5 -4.98 5 -6 5 C-6.33 5.99 -6.66 6.98 -7 8 C-7.38218767 6.34385343 -7.71395102 4.67542976 -8 3 C-7 2 -7 2 -4 1.875 C-1 2 -1 2 0 3 C0.04080783 4.99958364 0.04254356 7.00045254 0 9 C0.66 9 1.32 9 2 9 C1.51515724 4.35413108 1.51515724 4.35413108 0 0 Z " fill="#1B5B89" transform="translate(94,59)"/>
<path d="M0 0 C0.66 1.32 1.32 2.64 2 4 C1.34 4.66 0.68 5.32 0 6 C-2.625 5.625 -2.625 5.625 -5 5 C-4.01 4.67 -3.02 4.34 -2 4 C-2 3.34 -2 2.68 -2 2 C-2.99 2.33 -3.98 2.66 -5 3 C-5 3.99 -5 4.98 -5 6 C0.32170494 6.29562367 0.32170494 6.29562367 5 4 C5.391875 4.495 5.78375 4.99 6.1875 5.5 C7.90505916 7.25641279 7.90505916 7.25641279 10.3125 6.9375 C13 7 13 7 15.875 9.0625 C18.9096838 11.33428006 18.9096838 11.33428006 22.6875 10.9375 C26.01786105 9.99494498 26.74122328 9.36633751 29 7 C31.1875 7.3125 31.1875 7.3125 33 8 C33.33 7.34 33.66 6.68 34 6 C38 6 38 6 40 7 C39.175 7.886875 38.35 8.77375 37.5 9.6875 C35.53900524 12.01307407 35.02740522 12.74787194 34.6875 15.875 C34.8421875 16.926875 34.8421875 16.926875 35 18 C35.33 18 35.66 18 36 18 C35.8453125 16.9171875 35.8453125 16.9171875 35.6875 15.8125 C36.1329965 11.8030315 37.94234106 10.50172095 41 8 C43.3125 7.1875 43.3125 7.1875 45 7 C43.75453595 10.73639216 42.36595047 11.18756513 39 13 C39.495 14.485 39.495 14.485 40 16 C40 15.01 40 14.02 40 13 C41.32 12.67 42.64 12.34 44 12 C44.268125 12.639375 44.53625 13.27875 44.8125 13.9375 C45.88667752 16.33131686 45.88667752 16.33131686 49 17 C43.35088652 20.76607566 37.62107955 21.29668844 31 20 C25.72351861 17.81900597 20.80419802 14.90767462 15.93774414 11.93969727 C12.0594099 10.0589226 8.16897768 9.87626394 3.91796875 9.90234375 C2.98662109 9.90556641 2.05527344 9.90878906 1.09570312 9.91210938 C0.13599609 9.92048828 -0.82371094 9.92886719 -1.8125 9.9375 C-2.79154297 9.94201172 -3.77058594 9.94652344 -4.77929688 9.95117188 C-7.18626111 9.96291316 -9.59309857 9.97933581 -12 10 C-12.2578125 4.296875 -12.2578125 4.296875 -9.9375 1.625 C-6.38328737 -0.34116018 -4.002247 -0.31390173 0 0 Z " fill="#0A487B" transform="translate(12,72)"/>
<path d="M0 0 C6.87886209 3.49063596 12.7959016 6.00584822 20.6875 5.5625 C18.1624588 8.52139707 15.43428913 9.75912795 11.875 11.25 C10.85792969 11.68699219 9.84085938 12.12398437 8.79296875 12.57421875 C5.57198973 13.59925987 3.04420316 13.74814726 -0.3125 13.5625 C0.3475 12.9025 1.0075 12.2425 1.6875 11.5625 C2.0632916 7.24089666 1.68545425 5.55840851 -0.3125 1.5625 C-3.2825 2.2225 -6.2525 2.8825 -9.3125 3.5625 C-9.68375 2.7375 -10.055 1.9125 -10.4375 1.0625 C-11.05625 0.2375 -11.675 -0.5875 -12.3125 -1.4375 C-15.43885209 -1.85496608 -15.43885209 -1.85496608 -18.3125 -1.4375 C-17.9825 -1.4375 -17.6525 -1.4375 -17.3125 -1.4375 C-15.64428677 -1.11199498 -13.97750443 -0.77903937 -12.3125 -0.4375 C-11.00357551 3.965246 -11.00357551 3.965246 -12.25 6.375 C-15.50939408 8.25162083 -18.69828722 8.06145327 -22.3125 7.5625 C-25.09827599 6.73953731 -27.6336656 5.71057188 -30.3125 4.5625 C-30.3125 3.5725 -30.3125 2.5825 -30.3125 1.5625 C-28.89921871 0.74412558 -27.48171654 -0.06696219 -26.0625 -0.875 C-24.87914062 -1.55369141 -24.87914062 -1.55369141 -23.671875 -2.24609375 C-14.97897723 -6.63571928 -8.05865881 -4.3041028 0 0 Z " fill="#22517C" transform="translate(55.3125,102.4375)"/>
<path d="M0 0 C-0.33 1.32 -0.66 2.64 -1 4 C-1.66 4 -2.32 4 -3 4 C-2.67 4.33 -2.34 4.66 -2 5 C-1.95936168 6.66617115 -1.957279 8.33388095 -2 10 C-3.32 10.33 -4.64 10.66 -6 11 C-6.33 10.01 -6.66 9.02 -7 8 C-6.01 8 -5.02 8 -4 8 C-4.33 7.34 -4.66 6.68 -5 6 C-5.99 6 -6.98 6 -8 6 C-7.67 7.65 -7.34 9.3 -7 11 C-4.66928121 11.41870553 -4.66928121 11.41870553 -2 11 C0.33630748 8.60140956 0.33630748 8.60140956 2 6 C2.99 7.65 3.98 9.3 5 11 C4.34 11.66 3.68 12.32 3 13 C3 12.34 3 11.68 3 11 C2.01 11 1.02 11 0 11 C0 11.99 0 12.98 0 14 C-0.66 14 -1.32 14 -2 14 C-2 14.66 -2 15.32 -2 16 C-2.99 16.33 -3.98 16.66 -5 17 C-5.721875 16.195625 -6.44375 15.39125 -7.1875 14.5625 C-10.01356127 11.98764417 -11.21700564 11 -15 11 C-16.93654948 12.01970318 -16.93654948 12.01970318 -18 14 C-18.25069913 16.62570704 -18.25069913 16.62570704 -18 19 C-16.35 19 -14.7 19 -13 19 C-13 18.01 -13 17.02 -13 16 C-14.32 16.33 -15.64 16.66 -17 17 C-16.67 15.68 -16.34 14.36 -16 13 C-10.6 12.52 -10.6 12.52 -8.125 14.5 C-6.52257306 18.06094875 -6.44106188 21.15828447 -7 25 C-8.0625 27.5 -8.0625 27.5 -10 29 C-13.5625 29.375 -13.5625 29.375 -17 29 C-17.66 28.34 -18.32 27.68 -19 27 C-17.35 26.67 -15.7 26.34 -14 26 C-14.34786708 24.02463255 -14.34786708 24.02463255 -15 22 C-15.66 21.67 -16.32 21.34 -17 21 C-16.67 22.32 -16.34 23.64 -16 25 C-20.05606165 24.53199289 -23.46588679 24.12046792 -27 22 C-26.34 21.67 -25.68 21.34 -25 21 C-25 20.34 -25 19.68 -25 19 C-23.68 18.67 -22.36 18.34 -21 18 C-21 18.99 -21 19.98 -21 21 C-20.67 20.01 -20.34 19.02 -20 18 C-22.31 18 -24.62 18 -27 18 C-22.50820952 13.28833167 -17.30421762 9.73657436 -12 6 C-11.13761719 5.38898438 -10.27523437 4.77796875 -9.38671875 4.1484375 C-8.20529297 3.33246094 -8.20529297 3.33246094 -7 2.5 C-6.29875 2.0153125 -5.5975 1.530625 -4.875 1.03125 C-3 0 -3 0 0 0 Z " fill="#4E7A9D" transform="translate(89,74)"/>
<path d="M0 0 C1.32 0 2.64 0 4 0 C6.125 0.1875 6.125 0.1875 8 1 C10.01046904 4.81989117 10 7.74951489 10 12 C10.66 12 11.32 12 12 12 C12 12.66 12 13.32 12 14 C7.915021 14.54466387 4.1274515 15 0 15 C0 14.34 0 13.68 0 13 C-1.32 13 -2.64 13 -4 13 C-5.75 10.5 -5.75 10.5 -7 8 C-7.556875 8.66 -8.11375 9.32 -8.6875 10 C-11 12 -11 12 -13.625 12.375 C-16 12 -16 12 -18 10 C-17.625 7.375 -17.625 7.375 -17 5 C-15.02 5.495 -15.02 5.495 -13 6 C-13 6.66 -13 7.32 -13 8 C-13.99 8 -14.98 8 -16 8 C-15.67 8.66 -15.34 9.32 -15 10 C-14.01 10 -13.02 10 -12 10 C-12 9.236875 -12 8.47375 -12 7.6875 C-12 5.79166667 -12 3.89583333 -12 2 C-11.34 2.33 -10.68 2.66 -10 3 C-10 1.68 -10 0.36 -10 -1 C-6.0440473 -2.3186509 -3.93870119 -1.17470036 0 0 Z " fill="#D1D9E0" transform="translate(98,74)"/>
<path d="M0 0 C0.99 0.66 1.98 1.32 3 2 C3.66 1.67 4.32 1.34 5 1 C5 1.66 5 2.32 5 3 C5.66 3 6.32 3 7 3 C7 4.65 7 6.3 7 8 C8.32 8.33 9.64 8.66 11 9 C11.33 8.01 11.66 7.02 12 6 C13.66611905 5.957279 15.33382885 5.95936168 17 6 C18 7 18 7 18.0625 9.5625 C18.041875 10.366875 18.02125 11.17125 18 12 C16.68 11.67 15.36 11.34 14 11 C14.33 10.34 14.66 9.68 15 9 C14.01 8.67 13.02 8.34 12 8 C11.67 9.32 11.34 10.64 11 12 C9.68 12 8.36 12 7 12 C7 13.32 7 14.64 7 16 C5.68 16 4.36 16 3 16 C2.34 17.32 1.68 18.64 1 20 C0.5875 19.525625 0.175 19.05125 -0.25 18.5625 C-2.182185 16.83733482 -3.48192275 16.43415125 -6 16 C-6 14.68 -6 13.36 -6 12 C-6.99 11.67 -7.98 11.34 -9 11 C-8.690625 10.4225 -8.38125 9.845 -8.0625 9.25 C-6.90747972 7.08659691 -6.90747972 7.08659691 -6.6875 4.875 C-6 3 -6 3 -3.5 1.8125 C-2.2625 1.4103125 -2.2625 1.4103125 -1 1 C-0.67 0.67 -0.34 0.34 0 0 Z " fill="#285682" transform="translate(16,84)"/>
<path d="M0 0 C0 0.66 0 1.32 0 2 C-1.52367188 1.91298828 -1.52367188 1.91298828 -3.078125 1.82421875 C-16.67101138 1.28023794 -25.51863692 5.00214175 -36.73046875 12.74609375 C-52.81430087 23.83375341 -68.00700378 32.88185316 -88.33984375 29.43359375 C-93.45447919 28.2260593 -97.5607762 26.87101974 -102 24 C-98.24826099 22.74942033 -97.29036602 23.48952814 -93.6875 24.9375 C-82.0524474 28.97959306 -69.7215596 27.76674169 -58.4765625 22.91015625 C-56.62238143 21.99607751 -54.80546248 21.00689254 -53 20 C-55.31 19.67 -57.62 19.34 -60 19 C-60 18.67 -60 18.34 -60 18 C-59.3709375 17.97421875 -58.741875 17.9484375 -58.09375 17.921875 C-57.2378125 17.86515625 -56.381875 17.8084375 -55.5 17.75 C-54.6646875 17.70359375 -53.829375 17.6571875 -52.96875 17.609375 C-46.03537949 16.18620947 -40.3319072 11.99920989 -34.625 8 C-23.80313946 0.67579046 -13.33451212 -3.96170288 0 0 Z " fill="#E9E9EC" transform="translate(128,89)"/>
<path d="M0 0 C2.90050925 1.03129218 3.96302948 1.61065514 5.8125 4 C6.6517962 8.52917501 6.63125537 12.67739518 4.1875 16.625 C1.03818648 18.44828677 -0.60111103 18.6587245 -4.1875 18 C-7.05064748 16.00824523 -8.7836805 14.50597346 -9.70703125 11.0625 C-9.95602484 8.00509034 -9.80982572 5.9026909 -8.04296875 3.33984375 C-5.40891223 0.84478757 -3.61570703 0 0 0 Z " fill="#E8EDF0" transform="translate(98.1875,22)"/>
<path d="M0 0 C0.99 0.66 1.98 1.32 3 2 C1.36587557 3.70840281 0.13093906 4.93453047 -2 6 C-1.34 6 -0.68 6 0 6 C-0.66 7.65 -1.32 9.3 -2 11 C-2.99 10.67 -3.98 10.34 -5 10 C-5.0825 10.78375 -5.165 11.5675 -5.25 12.375 C-6 15 -6 15 -7.65625 16.15625 C-10.6303886 17.2269399 -13.0964266 17.19355594 -16.25 17.125 C-17.32765625 17.10695313 -18.4053125 17.08890625 -19.515625 17.0703125 C-20.33546875 17.04710938 -21.1553125 17.02390625 -22 17 C-19.29816945 18.35091528 -16.88191794 18.33858058 -13.875 18.5625 C-12.23144531 18.68818359 -12.23144531 18.68818359 -10.5546875 18.81640625 C-9.29011719 18.90728516 -9.29011719 18.90728516 -8 19 C-11.00617269 22.00617269 -13.82381598 21.59585316 -18 22 C-18 21.34 -18 20.68 -18 20 C-19.98 20 -21.96 20 -24 20 C-24 19.34 -24 18.68 -24 18 C-24.66 17.67 -25.32 17.34 -26 17 C-24.96101563 16.35933594 -23.92203125 15.71867187 -22.8515625 15.05859375 C-15.07897605 10.24548299 -7.40275109 5.37411257 0 0 Z " fill="#1A4E7B" transform="translate(98,96)"/>
<path d="M0 0 C3.15267639 1.19052116 5.68672384 2.52191028 8 5 C8.70464599 7.95514328 8.41691918 9.92522106 8 13 C-6.05555556 11.94444444 -6.05555556 11.94444444 -10 8 C-10.35571424 5.22542896 -10.36405327 3.62103204 -8.9375 1.1875 C-5.78100371 -0.74712676 -3.64159089 -0.47758569 0 0 Z " fill="#316791" transform="translate(120,76)"/>
<path d="M0 0 C3.36919605 1.39698373 5.20281796 3.30953762 7.5625 6.0625 C8.72191038 9.54073115 8.27070884 11.52145578 7.5625 15.0625 C8.14257812 14.5571875 8.72265625 14.051875 9.3203125 13.53125 C15.78033877 8.15855489 15.78033877 8.15855489 20.125 7.625 C20.929375 7.769375 21.73375 7.91375 22.5625 8.0625 C21.99015625 8.32289062 21.4178125 8.58328125 20.828125 8.8515625 C18.38815942 10.15568203 16.44638721 11.6797296 14.3125 13.4375 C9.30998235 17.37215674 4.67972853 20.7096062 -1.75 21.4375 C-4.4375 21.0625 -4.4375 21.0625 -7.4375 19.0625 C-7.4375 18.0725 -7.4375 17.0825 -7.4375 16.0625 C-8.0975 16.0625 -8.7575 16.0625 -9.4375 16.0625 C-9.7675 17.0525 -10.0975 18.0425 -10.4375 19.0625 C-11.7575 18.7325 -13.0775 18.4025 -14.4375 18.0625 C-13.4475 17.7325 -12.4575 17.4025 -11.4375 17.0625 C-12.0975 15.7425 -12.7575 14.4225 -13.4375 13.0625 C-10.1375 13.7225 -6.8375 14.3825 -3.4375 15.0625 C-3.7675 13.7425 -4.0975 12.4225 -4.4375 11.0625 C-3.4475 11.3925 -2.4575 11.7225 -1.4375 12.0625 C-0.75 14.125 -0.75 14.125 -0.4375 16.0625 C-2.4175 17.0525 -2.4175 17.0525 -4.4375 18.0625 C-1.02107241 18.31265873 -1.02107241 18.31265873 2.5625 18.0625 C4.56075961 15.06511059 4.83800398 14.42902492 4.8125 11.0625 C4.81765625 10.381875 4.8228125 9.70125 4.828125 9 C4.66167603 6.73833993 4.66167603 6.73833993 2.5625 4.0625 C-0.52115871 3.8122843 -0.52115871 3.8122843 -3.4375 4.0625 C-3.4375 4.7225 -3.4375 5.3825 -3.4375 6.0625 C-2.4475 6.0625 -1.4575 6.0625 -0.4375 6.0625 C-0.4375 7.0525 -0.4375 8.0425 -0.4375 9.0625 C-2.0875 9.0625 -3.7375 9.0625 -5.4375 9.0625 C-6.1875 6.8125 -6.1875 6.8125 -6.4375 4.0625 C-4.49621741 1.22524083 -3.49877163 0.08971209 0 0 Z " fill="#DEE2E6" transform="translate(76.4375,83.9375)"/>
<path d="M0 0 C0 6.6 0 13.2 0 20 C2.32370613 19.09098671 2.32370613 19.09098671 3.4375 16.0625 C5 13 5 13 8 11 C10.6875 11.375 10.6875 11.375 13 12 C13 14.64 13 17.28 13 20 C13.66 20.33 14.32 20.66 15 21 C13.02 21.99 13.02 21.99 11 23 C10.34 22.34 9.68 21.68 9 21 C8.34 21.66 7.68 22.32 7 23 C4.98944339 22.73775349 2.98821313 22.39764263 1 22 C-0.32 22 -1.64 22 -3 22 C-3.25422542 18.7097621 -3.47409878 15.41811775 -3.6875 12.125 C-3.76033203 11.18785156 -3.83316406 10.25070313 -3.90820312 9.28515625 C-3.96298828 8.38925781 -4.01777344 7.49335938 -4.07421875 6.5703125 C-4.13182373 5.74289551 -4.18942871 4.91547852 -4.2487793 4.06298828 C-4.16668213 3.38220215 -4.08458496 2.70141602 -4 2 C-1 0 -1 0 0 0 Z " fill="#F0F2F4" transform="translate(57,17)"/>
<path d="M0 0 C2.16015625 0.37109375 2.16015625 0.37109375 4 1 C1.39991307 2.81840816 -1.2057362 4.62867938 -3.8125 6.4375 C-4.55048828 6.95376953 -5.28847656 7.47003906 -6.04882812 8.00195312 C-6.76103516 8.49501953 -7.47324219 8.98808594 -8.20703125 9.49609375 C-8.8616333 9.95169678 -9.51623535 10.4072998 -10.19067383 10.87670898 C-15.83875896 14.38323168 -23.60701613 14.11502178 -30 13 C-37.58307026 10.50424217 -44.3659394 6.6340606 -50 1 C-46.04 1 -42.08 1 -38 1 C-39 2 -40 3 -41 4 C-39.35 4 -37.7 4 -36 4 C-35.34 5.32 -34.68 6.64 -34 8 C-34 6.68 -34 5.36 -34 4 C-32.68 4.66 -31.36 5.32 -30 6 C-30 6.66 -30 7.32 -30 8 C-30.99 8.495 -30.99 8.495 -32 9 C-31.01 9 -30.02 9 -29 9 C-28.67 8.34 -28.34 7.68 -28 7 C-27.34 7 -26.68 7 -26 7 C-25.67 7.99 -25.34 8.98 -25 10 C-22.18455593 11.40772204 -20.12852058 11.22400815 -17 11 C-14.17084349 9.91403468 -14.17084349 9.91403468 -11.5 8.3125 C-10.54996094 7.77109375 -9.59992188 7.2296875 -8.62109375 6.671875 C-6.40037844 5.25538297 -4.50736663 3.82426214 -2.5625 2.0625 C-1.716875 1.381875 -0.87125 0.70125 0 0 Z " fill="#255883" transform="translate(95,93)"/>
<path d="M0 0 C2 1.3125 2 1.3125 3 3 C2.8125 5.125 2.8125 5.125 2 7 C1.01 7.495 1.01 7.495 0 8 C0 6.02 0 4.04 0 2 C-3.3 2 -6.6 2 -10 2 C-10 2.66 -10 3.32 -10 4 C-8.02 3.67 -6.04 3.34 -4 3 C-3.34 4.65 -2.68 6.3 -2 8 C-3.32 8.33 -4.64 8.66 -6 9 C-6 9.99 -6 10.98 -6 12 C-5.34 12.33 -4.68 12.66 -4 13 C-9.75 14.125 -9.75 14.125 -12 13 C-12 12.01 -12 11.02 -12 10 C-13.32 10 -14.64 10 -16 10 C-15.67 11.32 -15.34 12.64 -15 14 C-15.99 13.67 -16.98 13.34 -18 13 C-17.8125 11.1875 -17.8125 11.1875 -17 9 C-14.5 7.375 -14.5 7.375 -12 6 C-11.67 5.34 -11.34 4.68 -11 4 C-11.78375 4.495 -12.5675 4.99 -13.375 5.5 C-16 7 -16 7 -18 7 C-18.33 9.97 -18.66 12.94 -19 16 C-19.99 15.67 -20.98 15.34 -22 15 C-21.93268212 11.63410624 -21.80371347 8.98813498 -19.62109375 6.3046875 C-13.70936897 1.04100414 -8.07198306 -2.17322621 0 0 Z " fill="#6893AF" transform="translate(68,75)"/>
<path d="M0 0 C0.99 0 1.98 0 3 0 C1.75453595 3.73639216 0.36595047 4.18756513 -3 6 C-2.67 6.99 -2.34 7.98 -2 9 C-2 8.01 -2 7.02 -2 6 C-0.68 5.67 0.64 5.34 2 5 C2.268125 5.639375 2.53625 6.27875 2.8125 6.9375 C3.88667752 9.33131686 3.88667752 9.33131686 7 10 C1.38657887 13.74228075 -4.4067479 14.04103981 -11 13 C-14.92407307 11.35902399 -18.45614234 9.34396885 -22 7 C-22 6.67 -22 6.34 -22 6 C-17.46298506 4.54815522 -13.81938524 3.76490804 -9 4 C-8.34 6.31 -7.68 8.62 -7 11 C-6.67 11 -6.34 11 -6 11 C-6.1546875 9.9171875 -6.1546875 9.9171875 -6.3125 8.8125 C-5.87413189 4.86718704 -3.90882229 3.55408786 -1 1 C-0.67 0.67 -0.34 0.34 0 0 Z " fill="#4E7C9F" transform="translate(54,79)"/>
<path d="M0 0 C0.33 0.66 0.66 1.32 1 2 C0.01 2.99 -0.98 3.98 -2 5 C-0.41316357 11.20308787 2.47803311 14.37473245 7.8125 17.8125 C8.534375 18.204375 9.25625 18.59625 10 19 C9.67 19.99 9.34 20.98 9 22 C4.23013567 22.95397287 -0.16144615 23.03998805 -5 23 C-5.14510162 19.72963272 -5.23399373 16.46008993 -5.3125 13.1875 C-5.35439453 12.25873047 -5.39628906 11.32996094 -5.43945312 10.37304688 C-5.48551502 7.82121811 -5.48722926 5.50649184 -5 3 C-2.48046875 0.86328125 -2.48046875 0.86328125 0 0 Z " fill="#6B7E99" transform="translate(5,85)"/>
<path d="M0 0 C0.33 0.99 0.66 1.98 1 3 C2.81957556 3.65379475 2.81957556 3.65379475 5 4 C6.5877111 4.50733153 8.17107494 5.02845182 9.75 5.5625 C10.94882812 5.96662109 10.94882812 5.96662109 12.171875 6.37890625 C12.77515625 6.58386719 13.3784375 6.78882812 14 7 C14 7.66 14 8.32 14 9 C18.7897321 9.23428313 18.7897321 9.23428313 23 7 C22.01 6.34 21.02 5.68 20 5 C22.5853343 2.51807907 23.92643811 2.00774336 27.5625 1.625 C31 2 31 2 32.9375 3.5 C33.288125 3.995 33.63875 4.49 34 5 C33.34 6.32 32.68 7.64 32 9 C30.68 9 29.36 9 28 9 C28 8.34 28 7.68 28 7 C28.66 7 29.32 7 30 7 C29.505 6.01 29.505 6.01 29 5 C28.34 5 27.68 5 27 5 C27 6.32 27 7.64 27 9 C29.475 9.99 29.475 9.99 32 11 C32 11.33 32 11.66 32 12 C18.78971715 12.91596722 7.21450629 10.38516268 -4 3 C-3 1 -3 1 0 0 Z " fill="#194A77" transform="translate(23,105)"/>
<path d="M0 0 C3.23346106 0.2108779 5.34731498 0.49469547 7.9375 2.5 C10.80276555 4.58382949 13.53256813 4.60746054 17 5 C18 6 18 6 18.09765625 8.94140625 C18.08605469 10.13636719 18.07445312 11.33132812 18.0625 12.5625 C18.05347656 13.76003906 18.04445312 14.95757812 18.03515625 16.19140625 C18.02355469 17.11824219 18.01195312 18.04507813 18 19 C15.91630099 18.04246202 13.83305453 17.0839392 11.75 16.125 C10.58984375 15.59132813 9.4296875 15.05765625 8.234375 14.5078125 C5.80146131 13.3736281 3.39089364 12.21911904 1 11 C1.804375 10.7525 2.60875 10.505 3.4375 10.25 C6.12918473 9.26886242 6.12918473 9.26886242 6.9375 7 C6.958125 6.34 6.97875 5.68 7 5 C4.23776722 2.23776722 1.79293383 2.42143709 -2 2 C-1.34 1.34 -0.68 0.68 0 0 Z " fill="#105483" transform="translate(110,58)"/>
<path d="M0 0 C0.99 0.33 1.98 0.66 3 1 C2.67 2.65 2.34 4.3 2 6 C1.46375 5.505 0.9275 5.01 0.375 4.5 C-2.59358445 2.62510456 -4.55312427 2.76498575 -8 3 C-8 3.99 -8 4.98 -8 6 C-5.80592369 7.66720849 -5.80592369 7.66720849 -3.0625 9.125 C1.97087379 11.97087379 1.97087379 11.97087379 3 13 C2.75 16.4375 2.75 16.4375 2 20 C-1.19745142 22.13163428 -2.28757916 22.31975564 -6 22.375 C-6.86625 22.40335938 -7.7325 22.43171875 -8.625 22.4609375 C-11 22 -11 22 -12.8125 19.9765625 C-13.204375 19.32429688 -13.59625 18.67203125 -14 18 C-12.68 17.34 -11.36 16.68 -10 16 C-9.46375 16.66 -8.9275 17.32 -8.375 18 C-6.10041408 20.31024799 -6.10041408 20.31024799 -2.75 20.25 C-1.8425 20.1675 -0.935 20.085 0 20 C-1.6590482 14.6330244 -4.29334387 13.27798873 -9.00390625 10.625 C-11 9 -11 9 -11.77734375 6.3125 C-11.88755859 5.1678125 -11.88755859 5.1678125 -12 4 C-7.99754103 0.11882767 -5.52565803 -0.511635 0 0 Z " fill="#F0F2F3" transform="translate(37,18)"/>
<path d="M0 0 C-0.33 1.32 -0.66 2.64 -1 4 C-1.66 4 -2.32 4 -3 4 C-2.67 4.33 -2.34 4.66 -2 5 C-1.95936168 6.66617115 -1.957279 8.33388095 -2 10 C-3.32 10.33 -4.64 10.66 -6 11 C-6.33 10.01 -6.66 9.02 -7 8 C-6.01 8 -5.02 8 -4 8 C-4.33 7.34 -4.66 6.68 -5 6 C-5.99 6 -6.98 6 -8 6 C-7.67 7.65 -7.34 9.3 -7 11 C-4.66928121 11.41870553 -4.66928121 11.41870553 -2 11 C0.33630748 8.60140956 0.33630748 8.60140956 2 6 C2.99 7.65 3.98 9.3 5 11 C4.34 11.66 3.68 12.32 3 13 C3 12.34 3 11.68 3 11 C2.01 11 1.02 11 0 11 C0 11.99 0 12.98 0 14 C-0.66 14 -1.32 14 -2 14 C-2 14.66 -2 15.32 -2 16 C-2.99 16.33 -3.98 16.66 -5 17 C-5.721875 16.195625 -6.44375 15.39125 -7.1875 14.5625 C-9.75946568 11.95250169 -9.75946568 11.95250169 -12.5 10.875 C-15.30425708 10.75774742 -15.30425708 10.75774742 -17.8125 13.4375 C-18.534375 14.283125 -19.25625 15.12875 -20 16 C-20.66 15.67 -21.32 15.34 -22 15 C-22 15.66 -22 16.32 -22 17 C-23.65 17.33 -25.3 17.66 -27 18 C-22.50820952 13.28833167 -17.30421762 9.73657436 -12 6 C-11.13761719 5.38898438 -10.27523437 4.77796875 -9.38671875 4.1484375 C-8.20529297 3.33246094 -8.20529297 3.33246094 -7 2.5 C-6.29875 2.0153125 -5.5975 1.530625 -4.875 1.03125 C-3 0 -3 0 0 0 Z " fill="#1D5583" transform="translate(89,74)"/>
<path d="M0 0 C0.99 0.66 1.98 1.32 3 2 C3.66 1.67 4.32 1.34 5 1 C5 1.66 5 2.32 5 3 C5.66 3 6.32 3 7 3 C7 4.65 7 6.3 7 8 C8.32 8.33 9.64 8.66 11 9 C11.33 8.01 11.66 7.02 12 6 C13.66611905 5.957279 15.33382885 5.95936168 17 6 C18 7 18 7 18.0625 9.5625 C18.041875 10.366875 18.02125 11.17125 18 12 C16.68 11.67 15.36 11.34 14 11 C14.33 10.34 14.66 9.68 15 9 C14.01 8.67 13.02 8.34 12 8 C11.67 9.32 11.34 10.64 11 12 C9.68 12 8.36 12 7 12 C7 13.32 7 14.64 7 16 C5.68 16 4.36 16 3 16 C2.34 17.32 1.68 18.64 1 20 C0.5875 19.525625 0.175 19.05125 -0.25 18.5625 C-2.182185 16.83733482 -3.48192275 16.43415125 -6 16 C-6 14.68 -6 13.36 -6 12 C-6.99 11.67 -7.98 11.34 -9 11 C-8.690625 10.4225 -8.38125 9.845 -8.0625 9.25 C-6.90747972 7.08659691 -6.90747972 7.08659691 -6.6875 4.875 C-6 3 -6 3 -3.5 1.8125 C-2.2625 1.4103125 -2.2625 1.4103125 -1 1 C-0.67 0.67 -0.34 0.34 0 0 Z M0 2 C-0.33 2.99 -0.66 3.98 -1 5 C-2.32 5 -3.64 5 -5 5 C-5.66 6.65 -6.32 8.3 -7 10 C-6.01 10.33 -5.02 10.66 -4 11 C-4.33 12.32 -4.66 13.64 -5 15 C-3.68 14.67 -2.36 14.34 -1 14 C-0.34 15.32 0.32 16.64 1 18 C1.33 17.01 1.66 16.02 2 15 C3.32 15 4.64 15 6 15 C5.67 13.68 5.34 12.36 5 11 C5.99 11 6.98 11 8 11 C7.34 9.02 6.68 7.04 6 5 C4.68 5 3.36 5 2 5 C1.67 4.01 1.34 3.02 1 2 C0.67 2 0.34 2 0 2 Z " fill="#DBDEE3" transform="translate(16,84)"/>
<path d="M0 0 C0.66 0.66 1.32 1.32 2 2 C1.625 4.125 1.625 4.125 1 6 C0.34 6 -0.32 6 -1 6 C-0.67 4.68 -0.34 3.36 0 2 C-4.82442184 3.26946514 -4.82442184 3.26946514 -8 7 C-8.33 7.66 -8.66 8.32 -9 9 C-9.66 8.67 -10.32 8.34 -11 8 C-11.309375 9.0828125 -11.309375 9.0828125 -11.625 10.1875 C-13.48134044 13.98456 -15.59467803 15.4981308 -19 18 C-21.92654527 18.97551509 -23.94654996 19.16478088 -27 19.1875 C-28.299375 19.20876953 -28.299375 19.20876953 -29.625 19.23046875 C-32 19 -32 19 -35 17 C-31.75544693 15.37772347 -28.29698346 16.03985905 -24.7265625 16.16015625 C-21.90091755 15.99417997 -20.34219836 15.55966665 -18 14 C-17.19471111 11.94999129 -17.19471111 11.94999129 -17 10 C-17.99 10.33 -18.98 10.66 -20 11 C-20 10.34 -20 9.68 -20 9 C-17.525 9.495 -17.525 9.495 -15 10 C-14.01 8.68 -13.02 7.36 -12 6 C-13.98 6.33 -15.96 6.66 -18 7 C-16 5 -16 5 -12.625 4.0625 C-9.07226181 3.25703559 -9.07226181 3.25703559 -6.875 1.375 C-4.43257428 -0.41611219 -2.96286521 -0.38985069 0 0 Z " fill="#DEE1E5" transform="translate(110,96)"/>
<path d="M0 0 C1.32 0.33 2.64 0.66 4 1 C3.67 1.66 3.34 2.32 3 3 C3.99 3 4.98 3 6 3 C6.66 2.34 7.32 1.68 8 1 C8 1.66 8 2.32 8 3 C8.66 3.33 9.32 3.66 10 4 C4.66666667 6.66666667 -0.66666667 9.33333333 -6 12 C-6.67836914 12.37012207 -7.35673828 12.74024414 -8.05566406 13.12158203 C-10 14 -10 14 -13 14 C-13.66 13.01 -14.32 12.02 -15 11 C-16.96752828 9.93753473 -18.96587579 8.92862192 -21 8 C-21 7.34 -21 6.68 -21 6 C-20.34 6 -19.68 6 -19 6 C-19 6.66 -19 7.32 -19 8 C-17.8553125 7.9071875 -17.8553125 7.9071875 -16.6875 7.8125 C-14 8 -14 8 -12.1875 9.5 C-11.795625 9.995 -11.40375 10.49 -11 11 C-10.34 10.01 -9.68 9.02 -9 8 C-7.68 8 -6.36 8 -5 8 C-5 6.68 -5 5.36 -5 4 C-4.360625 3.896875 -3.72125 3.79375 -3.0625 3.6875 C-2.381875 3.460625 -1.70125 3.23375 -1 3 C-0.67 2.01 -0.34 1.02 0 0 Z " fill="#234B78" transform="translate(28,92)"/>
<path d="M0 0 C0 0.66 0 1.32 0 2 C1.32 2.33 2.64 2.66 4 3 C3.67 3.66 3.34 4.32 3 5 C3.99 5.33 4.98 5.66 6 6 C5.375 8.375 5.375 8.375 4 11 C0.9498748 12.5250626 -0.89977784 13.27505554 -4.25 12.4375 C-6.61061381 10.49842437 -7.29520989 8.96011848 -8 6 C-7.20586081 3.22051285 -6.45145519 2.28215949 -4 0.75 C-2 0 -2 0 0 0 Z " fill="#3C678F" transform="translate(101,75)"/>
<path d="M0 0 C1.36125 0.37125 1.36125 0.37125 2.75 0.75 C3.08 3.72 3.41 6.69 3.75 9.75 C1.77 10.74 1.77 10.74 -0.25 11.75 C-0.25 10.76 -0.25 9.77 -0.25 8.75 C-0.8275 9.265625 -1.405 9.78125 -2 10.3125 C-4.25 11.75 -4.25 11.75 -6.5 11.4375 C-7.0775 11.210625 -7.655 10.98375 -8.25 10.75 C-7.9614231 6.99850024 -7.68939937 4.40096203 -5.5625 1.25 C-3.25 -0.25 -3.25 -0.25 0 0 Z " fill="#E0E8EC" transform="translate(49.25,28.25)"/>
<path d="M0 0 C0.7425 0.2475 1.485 0.495 2.25 0.75 C3.55892449 5.152746 3.55892449 5.152746 2.3125 7.5625 C-0.94689408 9.43912083 -4.13578722 9.24895327 -7.75 8.75 C-10.53577599 7.92703731 -13.0711656 6.89807188 -15.75 5.75 C-15.75 4.76 -15.75 3.77 -15.75 2.75 C-13.10261084 1.2893715 -11.85551666 0.75 -8.75 0.75 C-8.75 1.41 -8.75 2.07 -8.75 2.75 C-9.74 3.245 -9.74 3.245 -10.75 3.75 C-10.75 4.41 -10.75 5.07 -10.75 5.75 C-9.76 6.08 -8.77 6.41 -7.75 6.75 C-7.42 5.76 -7.09 4.77 -6.75 3.75 C-3.58018868 -0.3254717 -3.58018868 -0.3254717 0 0 Z " fill="#487195" transform="translate(40.75,101.25)"/>
<path d="M0 0 C3.125 0.25 3.125 0.25 5 1.5625 C6.125 3.25 6.125 3.25 6.125 6.25 C9.095 5.59 12.065 4.93 15.125 4.25 C17.38240223 6.69551908 18.09722725 8.01856041 18.5 11.375 C18.37625 12.32375 18.2525 13.2725 18.125 14.25 C15.125 16.25 15.125 16.25 12.4375 15.875 C11.674375 15.66875 10.91125 15.4625 10.125 15.25 C9.795 13.6 9.465 11.95 9.125 10.25 C10.445 10.25 11.765 10.25 13.125 10.25 C13.125 10.91 13.125 11.57 13.125 12.25 C12.465 12.25 11.805 12.25 11.125 12.25 C11.125 12.91 11.125 13.57 11.125 14.25 C12.775 13.59 14.425 12.93 16.125 12.25 C16.125 10.93 16.125 9.61 16.125 8.25 C9.05925202 7.77782571 9.05925202 7.77782571 3.125 11.25 C0.875 10.9375 0.875 10.9375 -0.875 10.25 C0.115 9.63125 0.115 9.63125 1.125 9 C1.785 8.4225 2.445 7.845 3.125 7.25 C3.125 5.93 3.125 4.61 3.125 3.25 C1.475 2.92 -0.175 2.59 -1.875 2.25 C-2.865 3.57 -3.855 4.89 -4.875 6.25 C-3.81271234 0.3315402 -3.81271234 0.3315402 0 0 Z " fill="#D4D7DD" transform="translate(39.875,99.75)"/>
<path d="M0 0 C2 0.1875 2 0.1875 4 1 C6.51756835 4.77635253 6.63772451 7.56365558 6 12 C4.5 14 4.5 14 3 15 C-0.875 13.25 -0.875 13.25 -2 11 C-2.12005453 9.50350638 -2.17531451 8.00125207 -2.1875 6.5 C-2.20167969 5.7059375 -2.21585937 4.911875 -2.23046875 4.09375 C-2 2 -2 2 0 0 Z " fill="#17739D" transform="translate(95,24)"/>
<path d="M0 0 C6.09067026 -0.42004622 9.10816881 -0.0566405 14 4 C15.42041821 6.84083641 15.31452272 8.85477278 15 12 C13.4375 14.375 13.4375 14.375 11 16 C7.375 16.375 7.375 16.375 4 16 C2 14 2 14 1.8125 11.4375 C2 9 2 9 3 8 C4.66617115 7.95936168 6.33388095 7.957279 8 8 C8 8.99 8 9.98 8 11 C6.68 11 5.36 11 4 11 C4.99 12.485 4.99 12.485 6 14 C7.65 13.67 9.3 13.34 11 13 C11.0745356 11.7763932 11.0745356 11.7763932 10 10 C9.960008 8.00039988 9.95653201 5.99952758 10 4 C6.7 3.01 3.4 2.02 0 1 C0 0.67 0 0.34 0 0 Z " fill="#DCE0E5" transform="translate(112,92)"/>
<path d="M0 0 C1.65 0 3.3 0 5 0 C5 0.66 5 1.32 5 2 C6.32 2.33 7.64 2.66 9 3 C8.34 3.66 7.68 4.32 7 5 C7.66 5.66 8.32 6.32 9 7 C7.4840625 7.309375 7.4840625 7.309375 5.9375 7.625 C1.35092343 8.89800901 -1.6373197 11.74974974 -5 15 C-6.27351308 12.45297384 -5.80191925 11.5717055 -5.0625 8.875 C-4.86785156 8.15054688 -4.67320313 7.42609375 -4.47265625 6.6796875 C-4.31667969 6.12539062 -4.16070312 5.57109375 -4 5 C-3.34 5 -2.68 5 -2 5 C-2 4.34 -2 3.68 -2 3 C-1.34 3 -0.68 3 0 3 C0 2.01 0 1.02 0 0 Z " fill="#517FA0" transform="translate(89,85)"/>
<path d="M0 0 C0.33 0 0.66 0 1 0 C1.28875 0.9075 1.5775 1.815 1.875 2.75 C2.82554385 5.90144737 2.82554385 5.90144737 4.3125 8.0625 C5 10 5 10 3.875 12.5625 C2.03729322 14.95151882 0.60531295 16.49997133 -2 18 C-3.32 18 -4.64 18 -6 18 C-6 17.01 -6 16.02 -6 15 C-5.01 14.67 -4.02 14.34 -3 14 C-3 13.34 -3 12.68 -3 12 C-5.95377498 9.63019987 -5.95377498 9.63019987 -10 10 C-10 9.34 -10 8.68 -10 8 C-2.25 6.875 -2.25 6.875 0 8 C0.625 10.5625 0.625 10.5625 1 13 C1.5534764 10.92446352 2 9.15634036 2 7 C-2.455 6.01 -2.455 6.01 -7 5 C-3 3 -3 3 0 3 C0 2.01 0 1.02 0 0 Z " fill="#185685" transform="translate(68,69)"/>
<path d="M0 0 C0 0.66 0 1.32 0 2 C-0.99 2.495 -0.99 2.495 -2 3 C-2.1546875 3.86625 -2.1546875 3.86625 -2.3125 4.75 C-3.31814692 8.0412081 -5.51442933 9.70084713 -8 12 C-8.33 12.33 -8.66 12.66 -9 13 C-11.4375 13.1875 -11.4375 13.1875 -14 13 C-14.66 12.34 -15.32 11.68 -16 11 C-15.625 8.375 -15.625 8.375 -15 6 C-13.02 6.495 -13.02 6.495 -11 7 C-11 7.66 -11 8.32 -11 9 C-11.99 9 -12.98 9 -14 9 C-13.67 9.66 -13.34 10.32 -13 11 C-12.01 11 -11.02 11 -10 11 C-10 10.236875 -10 9.47375 -10 8.6875 C-10 6.79166667 -10 4.89583333 -10 3 C-9.34 3.33 -8.68 3.66 -8 4 C-8 2.68 -8 1.36 -8 0 C-4.71023192 -1.09658936 -3.28696233 -0.79953138 0 0 Z " fill="#155888" transform="translate(96,73)"/>
<path d="M0 0 C0 1.98 0 3.96 0 6 C0.33 5.34 0.66 4.68 1 4 C2.65 4.33 4.3 4.66 6 5 C4 7 4 7 1.1796875 7.1953125 C0.08914062 7.17210938 -1.00140625 7.14890625 -2.125 7.125 C-3.22070312 7.10695313 -4.31640625 7.08890625 -5.4453125 7.0703125 C-6.28835937 7.04710938 -7.13140625 7.02390625 -8 7 C-5.29816945 8.35091528 -2.88191794 8.33858058 0.125 8.5625 C1.76855469 8.68818359 1.76855469 8.68818359 3.4453125 8.81640625 C4.28835937 8.87699219 5.13140625 8.93757813 6 9 C2.99382731 12.00617269 0.17618402 11.59585316 -4 12 C-4 11.34 -4 10.68 -4 10 C-5.98 10 -7.96 10 -10 10 C-10 9.34 -10 8.68 -10 8 C-10.66 7.67 -11.32 7.34 -12 7 C-10.18924982 5.83061933 -8.37635257 4.66456267 -6.5625 3.5 C-5.55316406 2.8503125 -4.54382813 2.200625 -3.50390625 1.53125 C-1 0 -1 0 0 0 Z " fill="#114673" transform="translate(84,106)"/>
<path d="M0 0 C9.23593481 -0.15654127 15.05349004 4.41702445 22 10 C22 10.33 22 10.66 22 11 C19.03 10.67 16.06 10.34 13 10 C12.67 8.68 12.34 7.36 12 6 C10.35 6 8.7 6 7 6 C6.67 6.66 6.34 7.32 6 8 C4.68 7.67 3.36 7.34 2 7 C2 5.35 2 3.7 2 2 C1.34 2 0.68 2 0 2 C0 1.34 0 0.68 0 0 Z " fill="#35668F" transform="translate(21,85)"/>
<path d="M0 0 C2.84557348 1.4327363 5.42581221 3.12786342 8 5 C7.67 5.66 7.34 6.32 7 7 C4.69 6.34 2.38 5.68 0 5 C0.33 4.01 0.66 3.02 1 2 C-1.31 2.33 -3.62 2.66 -6 3 C-6.33 4.65 -6.66 6.3 -7 8 C-5.35 8.33 -3.7 8.66 -2 9 C-2 8.34 -2 7.68 -2 7 C-2.99 7 -3.98 7 -5 7 C-4.67 6.01 -4.34 5.02 -4 4 C-2.68 4.66 -1.36 5.32 0 6 C-0.875 9.875 -0.875 9.875 -2 11 C-4.80951486 11.29573841 -6.41628976 11.38243085 -8.8125 9.8125 C-10.42525784 7.35092224 -10.4334014 5.88934264 -10 3 C-7.6413926 -1.02350674 -4.25898496 -0.5585554 0 0 Z " fill="#D7DCE1" transform="translate(120,76)"/>
<path d="M0 0 C0.763125 0.20625 1.52625 0.4125 2.3125 0.625 C2.3125 3.265 2.3125 5.905 2.3125 8.625 C2.9725 8.955 3.6325 9.285 4.3125 9.625 C2.3325 10.615 2.3325 10.615 0.3125 11.625 C-0.0175 10.635 -0.3475 9.645 -0.6875 8.625 C-1.863125 8.4084375 -1.863125 8.4084375 -3.0625 8.1875 C-5.6875 7.625 -5.6875 7.625 -7.6875 6.625 C-6.22846393 2.36012534 -5.12714281 -0.71541528 0 0 Z " fill="#E6EBEE" transform="translate(67.6875,28.375)"/>
<path d="M0 0 C0.66 0 1.32 0 2 0 C2.0825 0.7425 2.165 1.485 2.25 2.25 C3.16752658 5.61426412 4.26219512 6.87059621 7 9 C9.64184541 9.79681318 9.64184541 9.79681318 12 10 C12 8.68 12 7.36 12 6 C11.01 6 10.02 6 9 6 C9 6.66 9 7.32 9 8 C8.34 8 7.68 8 7 8 C7.66 6.68 8.32 5.36 9 4 C10.32 4.33 11.64 4.66 13 5 C13.5534764 7.07553648 14 8.84365964 14 11 C15.98 10.34 17.96 9.68 20 9 C19.4375 10.9375 19.4375 10.9375 18 13 C13.93748108 14.25000582 11.88289242 14.45083868 8.0625 12.5 C4.29215379 9.42216636 0.61118853 6.26290131 -3 3 C-2.01 2.67 -1.02 2.34 0 2 C0 1.34 0 0.68 0 0 Z " fill="#E2E5E8" transform="translate(20,70)"/>
<path d="M0 0 C3 2 3 2 4 5 C3.01 5.66 2.02 6.32 1 7 C0.46375 6.34 -0.0725 5.68 -0.625 5 C-2.89958592 2.68975201 -2.89958592 2.68975201 -6.25 2.75 C-7.1575 2.8325 -8.065 2.915 -9 3 C-10.32 5.31 -11.64 7.62 -13 10 C-14.32 9.67 -15.64 9.34 -17 9 C-16.67 8.01 -16.34 7.02 -16 6 C-15.34 6 -14.68 6 -14 6 C-14 5.34 -14 4.68 -14 4 C-14.66 3.67 -15.32 3.34 -16 3 C-10.31028145 0.56154919 -6.19527301 -0.52502314 0 0 Z " fill="#4B6F92" transform="translate(46,98)"/>
<path d="M0 0 C2 1.3125 2 1.3125 3 3 C2.8125 5.125 2.8125 5.125 2 7 C1.01 7.495 1.01 7.495 0 8 C0 6.02 0 4.04 0 2 C-5.36320874 1.55306594 -8.50960687 2.40836063 -13.203125 5.02734375 C-15 6 -15 6 -18 7 C-18.33 9.97 -18.66 12.94 -19 16 C-19.99 15.67 -20.98 15.34 -22 15 C-21.93268212 11.63410624 -21.80371347 8.98813498 -19.62109375 6.3046875 C-13.70936897 1.04100414 -8.07198306 -2.17322621 0 0 Z " fill="#DDE1E6" transform="translate(68,75)"/>
<path d="M0 0 C0.58523437 0.29648438 1.17046875 0.59296875 1.7734375 0.8984375 C1.4434375 1.8884375 1.1134375 2.8784375 0.7734375 3.8984375 C0.24234375 3.62128906 -0.28875 3.34414062 -0.8359375 3.05859375 C-1.54234375 2.69636719 -2.24875 2.33414063 -2.9765625 1.9609375 C-3.67265625 1.60128906 -4.36875 1.24164063 -5.0859375 0.87109375 C-8.83330632 -0.83163405 -12.11023308 -1.22422305 -16.2109375 -1.19921875 C-17.14550781 -1.19599609 -18.08007812 -1.19277344 -19.04296875 -1.18945312 C-20.49509766 -1.17688477 -20.49509766 -1.17688477 -21.9765625 -1.1640625 C-23.45189453 -1.15729492 -23.45189453 -1.15729492 -24.95703125 -1.15039062 C-27.38027041 -1.13862733 -29.80338523 -1.12218934 -32.2265625 -1.1015625 C-32.2265625 -1.7615625 -32.2265625 -2.4215625 -32.2265625 -3.1015625 C-22.0902048 -6.4803484 -9.35417887 -4.62785691 0 0 Z " fill="#DCE0E5" transform="translate(32.2265625,85.1015625)"/>
<path d="M0 0 C0.99 0.66 1.98 1.32 3 2 C3.66 2.33 4.32 2.66 5 3 C4.67 3.66 4.34 4.32 4 5 C4.66 5 5.32 5 6 5 C6 6.32 6 7.64 6 9 C7.32 9 8.64 9 10 9 C9.67 9.66 9.34 10.32 9 11 C3.25 10.125 3.25 10.125 1 9 C0.67 9.66 0.34 10.32 0 11 C0 10.34 0 9.68 0 9 C-0.99 9 -1.98 9 -3 9 C-3 8.01 -3 7.02 -3 6 C-3.66 5.67 -4.32 5.34 -5 5 C-4.34 5 -3.68 5 -3 5 C-2.67 4.01 -2.34 3.02 -2 2 C-1.34 1.34 -0.68 0.68 0 0 Z " fill="#A1AFBF" transform="translate(107,102)"/>
<path d="M0 0 C0 1.65 0 3.3 0 5 C0.99 5 1.98 5 3 5 C3 5.66 3 6.32 3 7 C2.01 7 1.02 7 0 7 C0 9.97 0 12.94 0 16 C0.66 16.33 1.32 16.66 2 17 C0.02 17.99 0.02 17.99 -2 19 C-3 18 -3 18 -3.09765625 15.49609375 C-3.08605469 14.48675781 -3.07445313 13.47742188 -3.0625 12.4375 C-3.05347656 11.42558594 -3.04445313 10.41367187 -3.03515625 9.37109375 C-3.02355469 8.58863281 -3.01195313 7.80617188 -3 7 C-3.99 7 -4.98 7 -6 7 C-6 6.34 -6 5.68 -6 5 C-5.34 5 -4.68 5 -4 5 C-3.87625 4.360625 -3.7525 3.72125 -3.625 3.0625 C-3.41875 2.381875 -3.2125 1.70125 -3 1 C-1 0 -1 0 0 0 Z " fill="#E8EDEF" transform="translate(77,21)"/>
<path d="M0 0 C0 1.32 0 2.64 0 4 C-0.99 4 -1.98 4 -3 4 C-2.67 3.34 -2.34 2.68 -2 2 C-2.99 2 -3.98 2 -5 2 C-5.33 3.32 -5.66 4.64 -6 6 C-6.66 6 -7.32 6 -8 6 C-8 7.32 -8 8.64 -8 10 C-8.66 9.67 -9.32 9.34 -10 9 C-10 8.34 -10 7.68 -10 7 C-12.31 7 -14.62 7 -17 7 C-17.33 6.34 -17.66 5.68 -18 5 C-16.68 4.67 -15.36 4.34 -14 4 C-14.66 3.34 -15.32 2.68 -16 2 C-10.51324804 0.13216954 -5.77807024 -0.2358396 0 0 Z " fill="#8CA5B9" transform="translate(69,91)"/>
<path d="M0 0 C1.9375 1.5 1.9375 1.5 3 3 C2.34 4.32 1.68 5.64 1 7 C-0.32 7 -1.64 7 -3 7 C-3 6.34 -3 5.68 -3 5 C-2.34 5 -1.68 5 -1 5 C-1.33 4.34 -1.66 3.68 -2 3 C-2.66 3 -3.32 3 -4 3 C-4 4.32 -4 5.64 -4 7 C-1.525 7.99 -1.525 7.99 1 9 C1 9.33 1 9.66 1 10 C-1.31 10 -3.62 10 -6 10 C-6.268125 9.21625 -6.53625 8.4325 -6.8125 7.625 C-7.84814432 4.71885077 -7.84814432 4.71885077 -11 3 C-7.49901508 -0.36094553 -4.74440725 -0.5175717 0 0 Z " fill="#164A76" transform="translate(54,107)"/>
<path d="M0 0 C0.99 0 1.98 0 3 0 C1.75453595 3.73639216 0.36595047 4.18756513 -3 6 C-2.67 6.99 -2.34 7.98 -2 9 C-2 8.01 -2 7.02 -2 6 C-0.68 5.67 0.64 5.34 2 5 C2.268125 5.639375 2.53625 6.27875 2.8125 6.9375 C3.88667752 9.33131686 3.88667752 9.33131686 7 10 C3.09121666 12.60585556 -0.46121966 12.22321871 -5 12 C-6 11 -6 11 -6.375 8.75 C-5.84750459 4.88170031 -3.86505492 3.51565798 -1 1 C-0.67 0.67 -0.34 0.34 0 0 Z " fill="#194E7D" transform="translate(54,79)"/>
<path d="M0 0 C0.598125 0.165 1.19625 0.33 1.8125 0.5 C4.11344336 1.1114124 4.11344336 1.1114124 7 1 C4.18508314 5.31034143 4.18508314 5.31034143 2 7 C-0.87742941 7.19806397 -3.1372033 6.61010421 -6 6 C-6.99 6.495 -6.99 6.495 -8 7 C-13.25905171 7.40454244 -16.45298292 6.66166853 -21 4 C-20.67 3.01 -20.34 2.02 -20 1 C-19.154375 1.680625 -18.30875 2.36125 -17.4375 3.0625 C-14.12208695 5.31295686 -14.12208695 5.31295686 -10.3125 4.9375 C-6.98213895 3.99494498 -6.25877672 3.36633751 -4 1 C-1.8125 1.3125 -1.8125 1.3125 0 2 C0 1.34 0 0.68 0 0 Z " fill="#155382" transform="translate(45,78)"/>
<path d="M0 0 C0.33 0.99 0.66 1.98 1 3 C2.2375 3.495 2.2375 3.495 3.5 4 C4.7375 4.495 4.7375 4.495 6 5 C6.33 5.99 6.66 6.98 7 8 C5.35 7.34 3.7 6.68 2 6 C1.34 6.66 0.68 7.32 0 8 C-3.625 8.125 -3.625 8.125 -7 8 C-7.33 6.68 -7.66 5.36 -8 4 C-6.68 3.67 -5.36 3.34 -4 3 C-4 3.66 -4 4.32 -4 5 C-4.99 5.495 -4.99 5.495 -6 6 C-4.35 5.67 -2.7 5.34 -1 5 C-1.33 4.01 -1.66 3.02 -2 2 C-7.02254631 1.7045561 -9.89542386 2.01485372 -14 5 C-14 4.01 -14 3.02 -14 2 C-9.60669096 -1.9681501 -5.39703686 -0.97593477 0 0 Z " fill="#DFE3E7" transform="translate(14,71)"/>
<path d="M0 0 C0.928125 0.20625 1.85625 0.4125 2.8125 0.625 C2.8125 3.925 2.8125 7.225 2.8125 10.625 C1.8225 10.295 0.8325 9.965 -0.1875 9.625 C-0.1875 8.635 -0.1875 7.645 -0.1875 6.625 C-1.8375 6.295 -3.4875 5.965 -5.1875 5.625 C-5.5175 4.305 -5.8475 2.985 -6.1875 1.625 C-3.1875 -0.375 -3.1875 -0.375 0 0 Z " fill="#20618D" transform="translate(125.1875,64.375)"/>
<path d="M0 0 C1.9375 1.25 1.9375 1.25 3 3 C2.6875 5.1875 2.6875 5.1875 2 7 C0.35 7.33 -1.3 7.66 -3 8 C-3.66 6.68 -4.32 5.36 -5 4 C-4.34 3.67 -3.68 3.34 -3 3 C-3 3.99 -3 4.98 -3 6 C-2.01 5.67 -1.02 5.34 0 5 C-0.33 4.01 -0.66 3.02 -1 2 C-4.29075996 2.37904208 -4.29075996 2.37904208 -7 4 C-7.15672777 7.52637472 -7.04028969 10.61905851 -6 14 C-9.12390012 11.55945303 -9.9381042 10.4410076 -10.5 6.4375 C-10 3 -10 3 -8.375 1.0625 C-5.33957342 -0.295454 -3.29238472 -0.42030443 0 0 Z " fill="#DADFE4" transform="translate(80,65)"/>
<path d="M0 0 C2.16015625 0.37109375 2.16015625 0.37109375 4 1 C1.39991307 2.81840816 -1.2057362 4.62867938 -3.8125 6.4375 C-4.91948242 7.2119043 -4.91948242 7.2119043 -6.04882812 8.00195312 C-6.76103516 8.49501953 -7.47324219 8.98808594 -8.20703125 9.49609375 C-8.8616333 9.95169678 -9.51623535 10.4072998 -10.19067383 10.87670898 C-13.85451561 13.15134615 -16.98597542 13.10767768 -21.1875 13.0625 C-22.81751953 13.04896484 -22.81751953 13.04896484 -24.48046875 13.03515625 C-25.31191406 13.02355469 -26.14335938 13.01195313 -27 13 C-26.34 12.01 -25.68 11.02 -25 10 C-24.34 10.33 -23.68 10.66 -23 11 C-18.32180546 11.38765938 -15.5544747 10.62518169 -11.5 8.3125 C-10.54996094 7.77109375 -9.59992188 7.2296875 -8.62109375 6.671875 C-6.40037844 5.25538297 -4.50736663 3.82426214 -2.5625 2.0625 C-1.716875 1.381875 -0.87125 0.70125 0 0 Z " fill="#134071" transform="translate(95,93)"/>
<path d="M0 0 C0 0.66 0 1.32 0 2 C-1.02738281 1.95359375 -2.05476563 1.9071875 -3.11328125 1.859375 C-11.89402068 1.58763065 -18.89905344 2.15548299 -27 6 C-27 5.01 -27 4.02 -27 3 C-18.45541765 -1.32051117 -9.34268243 -2.77572449 0 0 Z " fill="#DAE0E6" transform="translate(128,89)"/>
<path d="M0 0 C0.33 0.99 0.66 1.98 1 3 C2.84069426 3.7179382 2.84069426 3.7179382 5 4 C5.98939575 4.17680298 5.98939575 4.17680298 6.9987793 4.35717773 C7.68367432 4.46489502 8.36856934 4.5726123 9.07421875 4.68359375 C10.19860352 4.86825195 10.19860352 4.86825195 11.34570312 5.05664062 C12.91770909 5.31230465 14.49065819 5.5622304 16.06445312 5.80664062 C18.05505565 6.13869446 20.02990026 6.56243268 22 7 C22.33 7.66 22.66 8.32 23 9 C19.1496895 11.56687367 17.41430237 10.83288724 13 10 C13 9.34 13 8.68 13 8 C11.39125 7.814375 11.39125 7.814375 9.75 7.625 C6.56341444 7.09390241 4.72740069 6.55851468 2 5 C1.01 4.67 0.02 4.34 -1 4 C-0.67 2.68 -0.34 1.36 0 0 Z " fill="#C4C8D0" transform="translate(24,104)"/>
<path d="M0 0 C2 1.25 2 1.25 3 3 C2.72963853 5.97397616 2.14553974 6.85446026 0 9 C-2.625 8.625 -2.625 8.625 -5 8 C-5 6.68 -5 5.36 -5 4 C-4.01 4 -3.02 4 -2 4 C-2 4.66 -2 5.32 -2 6 C-1.34 6 -0.68 6 0 6 C0 5.01 0 4.02 0 3 C-5.71658336 2.54267333 -8.48649253 3.47726246 -13 7 C-13.66 6.67 -14.32 6.34 -15 6 C-10.17371857 1.78797257 -6.74240157 -1.18983557 0 0 Z " fill="#DEE1E5" transform="translate(115,60)"/>
<path d="M0 0 C2.4375 1.6875 2.4375 1.6875 4 4 C3.75 6.75 3.75 6.75 3 9 C2.34 9 1.68 9 1 9 C0.67 7.02 0.34 5.04 0 3 C-1.98 3 -3.96 3 -6 3 C-6 4.32 -6 5.64 -6 7 C-5.67 6.34 -5.34 5.68 -5 5 C-4.01 5 -3.02 5 -2 5 C-2.33 6.32 -2.66 7.64 -3 9 C-4.65 8.67 -6.3 8.34 -8 8 C-8.6875 5.6875 -8.6875 5.6875 -9 3 C-6.83574358 -0.69196683 -3.97279505 -0.56754215 0 0 Z " fill="#DFE3E7" transform="translate(93,59)"/>
<path d="M0 0 C0.33 5.94 0.66 11.88 1 18 C-0.65 18 -2.3 18 -4 18 C-3.98839844 17.01257813 -3.97679688 16.02515625 -3.96484375 15.0078125 C-3.95582031 13.72648437 -3.94679688 12.44515625 -3.9375 11.125 C-3.92589844 9.84882813 -3.91429688 8.57265625 -3.90234375 7.2578125 C-3.76823431 4.11335348 -3.76823431 4.11335348 -5 2 C-1.125 0 -1.125 0 0 0 Z " fill="#FBFBFB" transform="translate(87,22)"/>
<path d="M0 0 C3.875 1.875 3.875 1.875 5 3 C5.51234009 7.61106079 5.8678629 11.64999104 3.3125 15.625 C0.63064217 17.21961817 -0.93109509 17.34098943 -4 17 C-2.74458443 14.48916886 -1.49936512 14.12874554 1 13 C1.37552165 6.68731397 1.37552165 6.68731397 -1 1 C-0.67 0.67 -0.34 0.34 0 0 Z " fill="#F4F6F7" transform="translate(99,23)"/>
<path d="M0 0 C-0.33 0.99 -0.66 1.98 -1 3 C-1.99 3 -2.98 3 -4 3 C-4 3.99 -4 4.98 -4 6 C-6.64738916 7.4606285 -7.89448334 8 -11 8 C-12.6875 6 -12.6875 6 -14 4 C-3.25581395 -1.62790698 -3.25581395 -1.62790698 0 0 Z " fill="#6083A0" transform="translate(102,110)"/>
<path d="M0 0 C0.99 0.33 1.98 0.66 3 1 C3.6875 3.0625 3.6875 3.0625 4 5 C2.02 5.99 2.02 5.99 0 7 C1.65 7.33 3.3 7.66 5 8 C4.01 8.66 3.02 9.32 2 10 C-0.6875 9.125 -0.6875 9.125 -3 8 C-3 7.01 -3 6.02 -3 5 C-3.66 5 -4.32 5 -5 5 C-5.33 5.99 -5.66 6.98 -6 8 C-7.32 7.67 -8.64 7.34 -10 7 C-9.01 6.67 -8.02 6.34 -7 6 C-7.66 4.68 -8.32 3.36 -9 2 C-5.7 2.66 -2.4 3.32 1 4 C0.67 2.68 0.34 1.36 0 0 Z " fill="#D2D7DE" transform="translate(72,95)"/>
<path d="M0 0 C2.475 0.99 2.475 0.99 5 2 C5.66 1.34 6.32 0.68 7 0 C10.625 -0.125 10.625 -0.125 14 0 C11.42081348 3.00905094 8.7169251 4.64189275 5 6 C1.125 5.1875 1.125 5.1875 -2 4 C-1.34 2.68 -0.68 1.36 0 0 Z " fill="#7490A9" transform="translate(62,108)"/>
<path d="M0 0 C4.75090214 -0.48749929 7.4205327 1.11239077 11.5 3.4375 C18.24338509 7.09460772 24.2852242 8.0897067 32 8 C32 8.33 32 8.66 32 9 C19.50809467 12.07251531 10.75971055 6.8914497 0 1 C0 0.67 0 0.34 0 0 Z " fill="#D9DFE4" transform="translate(46,98)"/>
<path d="M0 0 C0.66 0.33 1.32 0.66 2 1 C2 1.66 2 2.32 2 3 C3.32 3 4.64 3 6 3 C6.66 4.98 7.32 6.96 8 9 C7.01 9 6.02 9 5 9 C5.33 10.32 5.66 11.64 6 13 C5.01 12.67 4.02 12.34 3 12 C3.33 10.02 3.66 8.04 4 6 C0.94736336 5.01879536 -0.94736336 5.01879536 -4 6 C-4.33 5.01 -4.66 4.02 -5 3 C-3.68 3 -2.36 3 -1 3 C-0.67 2.01 -0.34 1.02 0 0 Z " fill="#1A4E7C" transform="translate(16,86)"/>
<path d="M0 0 C0 0.66 0 1.32 0 2 C-7.3999216 6.06112834 -15.38734707 10 -24 10 C-24 9.34 -24 8.68 -24 8 C-22.91460937 7.67386719 -21.82921875 7.34773438 -20.7109375 7.01171875 C-19.26553999 6.57059094 -17.82023222 6.12916904 -16.375 5.6875 C-15.66214844 5.47416016 -14.94929688 5.26082031 -14.21484375 5.04101562 C-9.68065736 3.64748127 -4.54878232 0 0 0 Z " fill="#DFE2E6" transform="translate(77,109)"/>
<path d="M0 0 C5.4 -0.48 5.4 -0.48 7.875 1.5 C9.50517055 5.12260123 9.19772667 8.04546658 9 12 C8.01 12.495 8.01 12.495 7 13 C7 11.02 7 9.04 7 7 C6.01 7 5.02 7 4 7 C3.67 5.68 3.34 4.36 3 3 C1.68 3.33 0.36 3.66 -1 4 C-0.67 2.68 -0.34 1.36 0 0 Z " fill="#1E5583" transform="translate(73,87)"/>
<path d="M0 0 C0.59167969 0.27714844 1.18335938 0.55429688 1.79296875 0.83984375 C7.69046431 3.55774153 7.69046431 3.55774153 14 5 C12.02 5.99 12.02 5.99 10 7 C10.825 7.474375 11.65 7.94875 12.5 8.4375 C13.325 8.953125 14.15 9.46875 15 10 C15 10.33 15 10.66 15 11 C11.7 10.67 8.4 10.34 5 10 C5.99 9.34 6.98 8.68 8 8 C7.4225 7.59007813 6.845 7.18015625 6.25 6.7578125 C5.5075 6.21898438 4.765 5.68015625 4 5.125 C3.2575 4.59132813 2.515 4.05765625 1.75 3.5078125 C1.1725 3.01023437 0.595 2.51265625 0 2 C0 1.34 0 0.68 0 0 Z " fill="#F1F2F3" transform="translate(34,87)"/>
<path d="M0 0 C0 0.33 0 0.66 0 1 C-1.12535156 1.23783203 -1.12535156 1.23783203 -2.2734375 1.48046875 C-9.44265532 3.11476148 -15.58598859 5.40985645 -22 9 C-22 8.01 -22 7.02 -22 6 C-8.7357631 -2.22095672 -8.7357631 -2.22095672 0 0 Z " fill="#DBDEE3" transform="translate(44,97)"/>
<path d="M0 0 C1.670625 0.061875 1.670625 0.061875 3.375 0.125 C3.375 1.115 3.375 2.105 3.375 3.125 C5.025 3.455 6.675 3.785 8.375 4.125 C7.735625 4.24875 7.09625 4.3725 6.4375 4.5 C5.756875 4.70625 5.07625 4.9125 4.375 5.125 C4.045 5.785 3.715 6.445 3.375 7.125 C2.92125 6.465 2.4675 5.805 2 5.125 C1.46375 4.465 0.9275 3.805 0.375 3.125 C-0.285 3.125 -0.945 3.125 -1.625 3.125 C-1.955 3.785 -2.285 4.445 -2.625 5.125 C-1.635 5.125 -0.645 5.125 0.375 5.125 C0.375 5.785 0.375 6.445 0.375 7.125 C-1.275 7.125 -2.925 7.125 -4.625 7.125 C-5.25 4.75 -5.25 4.75 -5.625 2.125 C-3.625 0.125 -3.625 0.125 0 0 Z " fill="#174C7A" transform="translate(117.625,77.875)"/>
<path d="M0 0 C0.99 0 1.98 0 3 0 C3.02694851 1.95825873 3.04637218 3.91662226 3.0625 5.875 C3.07410156 6.96554688 3.08570312 8.05609375 3.09765625 9.1796875 C3 12 3 12 2 14 C5.465 13.505 5.465 13.505 9 13 C9 13.66 9 14.32 9 15 C7.39620659 15.05416188 5.79188594 15.09286638 4.1875 15.125 C3.29417969 15.14820313 2.40085937 15.17140625 1.48046875 15.1953125 C-1 15 -1 15 -4 13 C-2.35 12.67 -0.7 12.34 1 12 C0.67 8.04 0.34 4.08 0 0 Z " fill="#2F789F" transform="translate(81,26)"/>
<path d="M0 0 C0 0.66 0 1.32 0 2 C-0.99 2.495 -0.99 2.495 -2 3 C-2 3.66 -2 4.32 -2 5 C-1.01 5.33 -0.02 5.66 1 6 C1.33 5.01 1.66 4.02 2 3 C3.98 3.99 5.96 4.98 8 6 C6 8 6 8 3.9765625 8.046875 C3.20054688 7.94890625 2.42453125 7.8509375 1.625 7.75 C0.85414062 7.66234375 0.08328125 7.5746875 -0.7109375 7.484375 C-3.0786793 6.98335114 -4.89351698 6.17347456 -7 5 C-7 4.01 -7 3.02 -7 2 C-4.35261084 0.5393715 -3.10551666 0 0 0 Z " fill="#214775" transform="translate(32,102)"/>
<path d="M0 0 C0.66 0.66 1.32 1.32 2 2 C1.34 2.66 0.68 3.32 0 4 C-0.66 3.34 -1.32 2.68 -2 2 C-2.99 3.485 -2.99 3.485 -4 5 C-4.66 4.67 -5.32 4.34 -6 4 C-6 3.34 -6 2.68 -6 2 C-6.66 2 -7.32 2 -8 2 C-8.33 2.66 -8.66 3.32 -9 4 C-9 3.34 -9 2.68 -9 2 C-12.3 2 -15.6 2 -19 2 C-19 1.67 -19 1.34 -19 1 C-16.58440932 0.63645961 -14.16805703 0.28389449 -11.75 -0.0625 C-11.06808594 -0.16626953 -10.38617188 -0.27003906 -9.68359375 -0.37695312 C-3.12171172 -1.30071322 -3.12171172 -1.30071322 0 0 Z " fill="#124773" transform="translate(19,109)"/>
<path d="M0 0 C1.32 0.33 2.64 0.66 4 1 C3.67 1.66 3.34 2.32 3 3 C3.99 3 4.98 3 6 3 C6.66 2.34 7.32 1.68 8 1 C8 1.66 8 2.32 8 3 C8.66 3.33 9.32 3.66 10 4 C8.04414675 5.00484204 6.08523763 6.00373805 4.125 7 C3.03445312 7.556875 1.94390625 8.11375 0.8203125 8.6875 C-2 10 -2 10 -4 10 C-4 9.01 -4 8.02 -4 7 C-3.01 7 -2.02 7 -1 7 C-0.67 4.69 -0.34 2.38 0 0 Z " fill="#134A7A" transform="translate(28,92)"/>
<path d="M0 0 C0.99 0.33 1.98 0.66 3 1 C3 1.66 3 2.32 3 3 C3.99 3.33 4.98 3.66 6 4 C5.34 4 4.68 4 4 4 C4 4.66 4 5.32 4 6 C4.99 6.33 5.98 6.66 7 7 C7 7.99 7 8.98 7 10 C7.66 10 8.32 10 9 10 C9 9.34 9 8.68 9 8 C9.99 8 10.98 8 12 8 C12 9.32 12 10.64 12 12 C9.875 12.4375 9.875 12.4375 7 12 C3.6775506 9.18625099 1.37012718 6.24256981 0.125 2.0625 C0.08375 1.381875 0.0425 0.70125 0 0 Z " fill="#115182" transform="translate(20,68)"/>
<path d="M0 0 C3.96 0 7.92 0 12 0 C11 1 10 2 9 3 C10.65 3 12.3 3 14 3 C14.33 3.66 14.66 4.32 15 5 C13.68 4.67 12.36 4.34 11 4 C11 4.66 11 5.32 11 6 C6.48986609 5.46939601 3.61621781 3.69113883 0 1 C0 0.67 0 0.34 0 0 Z " fill="#134877" transform="translate(45,94)"/>
<path d="M0 0 C-0.33 0.99 -0.66 1.98 -1 3 C-7.66778797 6.13905602 -14.6974913 7.51316609 -22 8 C-22.33 7.34 -22.66 6.68 -23 6 C-21.85724609 5.85304688 -21.85724609 5.85304688 -20.69140625 5.703125 C-14.54525312 4.8130454 -9.30417234 3.59586671 -3.7421875 0.8046875 C-2 0 -2 0 0 0 Z " fill="#DEE0E4" transform="translate(66,87)"/>
<path d="M0 0 C0.66 0.33 1.32 0.66 2 1 C2 2.65 2 4.3 2 6 C2.66 5.67 3.32 5.34 4 5 C3.3125 6.9375 3.3125 6.9375 2 9 C-0.625 9.75 -0.625 9.75 -3 10 C-3.66 8.68 -4.32 7.36 -5 6 C-3.68 6 -2.36 6 -1 6 C-1.33 4.68 -1.66 3.36 -2 2 C-1.34 2 -0.68 2 0 2 C0 1.34 0 0.68 0 0 Z " fill="#154774" transform="translate(121,97)"/>
<path d="M0 0 C0.5775 0.495 1.155 0.99 1.75 1.5 C4.10400629 3.36980013 4.10400629 3.36980013 8 3 C8 3.99 8 4.98 8 6 C2.39 5.67 -3.22 5.34 -9 5 C-6.53473114 2.53473114 -4.28518427 2.04846307 -1 1 C-0.67 0.67 -0.34 0.34 0 0 Z " fill="#396A92" transform="translate(16,76)"/>
<path d="M0 0 C1.2065625 0.0309375 1.2065625 0.0309375 2.4375 0.0625 C2.4375 1.0525 2.4375 2.0425 2.4375 3.0625 C1.1175 3.0625 -0.2025 3.0625 -1.5625 3.0625 C-0.5725 4.5475 -0.5725 4.5475 0.4375 6.0625 C3.81212715 5.51526317 5.51985 5.0076 8.4375 3.0625 C6.5625 6.9375 6.5625 6.9375 5.4375 8.0625 C2 8.25 2 8.25 -1.5625 8.0625 C-3.5625 6.0625 -3.5625 6.0625 -3.75 3.5 C-3.4919783 0.14571793 -3.38163728 0.08247896 0 0 Z " fill="#EBECEE" transform="translate(117.5625,99.9375)"/>
<path d="M0 0 C2 1.1875 2 1.1875 4 3 C4.375 5.5625 4.375 5.5625 4 8 C2 10 2 10 -0.5 10.25 C-3 10 -3 10 -5 8 C-4.625 5.375 -4.625 5.375 -4 3 C-2.02 3.495 -2.02 3.495 0 4 C0 4.66 0 5.32 0 6 C-0.99 6 -1.98 6 -3 6 C-2.67 6.66 -2.34 7.32 -2 8 C-1.01 8 -0.02 8 1 8 C1.08226668 4.95613276 0.97608217 2.92824652 0 0 Z " fill="#E4E9EC" transform="translate(85,76)"/>
<path d="M0 0 C0 0.66 0 1.32 0 2 C1.65 2.33 3.3 2.66 5 3 C5 3.33 5 3.66 5 4 C2.36 4 -0.28 4 -3 4 C-3.33 4.66 -3.66 5.32 -4 6 C-4 5.34 -4 4.68 -4 4 C-6.97 3.505 -6.97 3.505 -10 3 C-6.1865669 0.45771127 -4.5252563 -0.11908569 0 0 Z " fill="#5B819F" transform="translate(74,114)"/>
<path d="M0 0 C3.125 0.25 3.125 0.25 5 1.4375 C6.53159584 3.90507108 6.55322025 5.39519831 6.125 8.25 C4.875 10.125 4.875 10.125 3.125 11.25 C0.9375 10.9375 0.9375 10.9375 -0.875 10.25 C0.115 9.63125 0.115 9.63125 1.125 9 C1.785 8.4225 2.445 7.845 3.125 7.25 C3.125 5.93 3.125 4.61 3.125 3.25 C1.475 2.92 -0.175 2.59 -1.875 2.25 C-2.865 3.57 -3.855 4.89 -4.875 6.25 C-3.81271234 0.3315402 -3.81271234 0.3315402 0 0 Z " fill="#EDEEF0" transform="translate(39.875,99.75)"/>
<path d="M0 0 C0.33 0.66 0.66 1.32 1 2 C0.01 2.99 -0.98 3.98 -2 5 C-0.77472971 9.05281712 0.69880494 12.44360764 3 16 C-1.22174141 14.49223521 -2.88717524 11.84835938 -5 8 C-5.5625 5.3125 -5.5625 5.3125 -5 3 C-2.5 1.1875 -2.5 1.1875 0 0 Z " fill="#C8D1DA" transform="translate(5,85)"/>
<path d="M0 0 C0.66 0.66 1.32 1.32 2 2 C-1.3 4.64 -4.6 7.28 -8 10 C-9.60031344 6.79937313 -8.03173691 4.27728194 -7 1 C-5.68 1.66 -4.36 2.32 -3 3 C-2.01 2.01 -1.02 1.02 0 0 Z " fill="#37638C" transform="translate(92,90)"/>
<path d="M0 0 C2 0 2 0 3.9375 1.875 C4.618125 2.57625 5.29875 3.2775 6 4 C6.99 4.66 7.98 5.32 9 6 C8.01 6 7.02 6 6 6 C5.67 7.32 5.34 8.64 5 10 C4.34 9.67 3.68 9.34 3 9 C3.33 8.34 3.66 7.68 4 7 C3.34 6.67 2.68 6.34 2 6 C1.67 6.66 1.34 7.32 1 8 C0.34 7.01 -0.32 6.02 -1 5 C-0.34 5 0.32 5 1 5 C1 4.34 1 3.68 1 3 C0.34 3 -0.32 3 -1 3 C-0.67 2.01 -0.34 1.02 0 0 Z " fill="#094271" transform="translate(112,104)"/>
<path d="M0 0 C0.99 0.33 1.98 0.66 3 1 C2.938125 1.78375 2.87625 2.5675 2.8125 3.375 C2.874375 4.24125 2.93625 5.1075 3 6 C3.99 6.66 4.98 7.32 6 8 C6 8.99 6 9.98 6 11 C0.42048518 9.66576819 0.42048518 9.66576819 -1.5 6.625 C-2.0781426 3.58975137 -1.68483352 2.52725028 0 0 Z " fill="#305F8A" transform="translate(95,77)"/>
<path d="M0 0 C4.99275057 1.27721526 7.57611908 3.17330957 11 7 C10.67 7.66 10.34 8.32 10 9 C8.5 7.625 8.5 7.625 7 6 C7 5.34 7 4.68 7 4 C4.03 4.66 1.06 5.32 -2 6 C-1.67 4.68 -1.34 3.36 -1 2 C-0.67 2.66 -0.34 3.32 0 4 C0 3.01 0 2.02 0 1 C0 0.67 0 0.34 0 0 Z " fill="#154373" transform="translate(48,100)"/>
<path d="M0 0 C0.99 0 1.98 0 3 0 C3 0.66 3 1.32 3 2 C3.66 2.33 4.32 2.66 5 3 C1.6659053 5.19097652 -1.04179141 6.43454163 -5 7 C-5.33 5.35 -5.66 3.7 -6 2 C-3.03 2.495 -3.03 2.495 0 3 C0 2.01 0 1.02 0 0 Z " fill="#6C96B2" transform="translate(103,58)"/>
<path d="M0 0 C2.22889496 -0.05428973 4.45817471 -0.09292338 6.6875 -0.125 C8.54955078 -0.15980469 8.54955078 -0.15980469 10.44921875 -0.1953125 C13.81237857 -0.01032021 15.9985587 0.54232105 19 2 C16.50907189 3.24546405 15.58919267 2.7767578 13 2 C12.67 2.66 12.34 3.32 12 4 C11.01 3.34 10.02 2.68 9 2 C8.01 2.33 7.02 2.66 6 3 C6 2.34 6 1.68 6 1 C5.01 1 4.02 1 3 1 C2.67 1.66 2.34 2.32 2 3 C2 2.34 2 1.68 2 1 C1.34 0.67 0.68 0.34 0 0 Z " fill="#104677" transform="translate(7,83)"/>
<path d="M0 0 C0.391875 0.639375 0.78375 1.27875 1.1875 1.9375 C3.38472296 4.43778819 4.75791433 4.64950425 8 5 C8 4.34 8 3.68 8 3 C7.01 3 6.02 3 5 3 C5.33 2.01 5.66 1.02 6 0 C7.32 0.66 8.64 1.32 10 2 C9.125 5.875 9.125 5.875 8 7 C5.15202522 7.29978682 3.58103368 7.40071289 1.1875 5.75 C0 4 0 4 0 0 Z " fill="#E9ECEF" transform="translate(110,80)"/>
<path d="M0 0 C0.33 0 0.66 0 1 0 C1.28875 0.9075 1.5775 1.815 1.875 2.75 C2.82554385 5.90144737 2.82554385 5.90144737 4.3125 8.0625 C4.539375 8.701875 4.76625 9.34125 5 10 C3.625 12.75 3.625 12.75 2 15 C2 12.33333333 2 9.66666667 2 7 C-2.455 6.01 -2.455 6.01 -7 5 C-3 3 -3 3 0 3 C0 2.01 0 1.02 0 0 Z " fill="#124C7E" transform="translate(68,69)"/>
<path d="M0 0 C0.33 1.98 0.66 3.96 1 6 C0.01 6.33 -0.98 6.66 -2 7 C-2 6.34 -2 5.68 -2 5 C-4.97 4.67 -7.94 4.34 -11 4 C-7.88789178 0.88789178 -4.34860953 0 0 0 Z " fill="#116592" transform="translate(84,61)"/>
<path d="M0 0 C0.33 0.99 0.66 1.98 1 3 C1.99 3 2.98 3 4 3 C4 3.99 4 4.98 4 6 C4.66 6.33 5.32 6.66 6 7 C1.94393835 6.53199289 -1.46588679 6.12046792 -5 4 C-4.34 3.67 -3.68 3.34 -3 3 C-3 2.34 -3 1.68 -3 1 C-2.01 0.67 -1.02 0.34 0 0 Z " fill="#164D7C" transform="translate(67,92)"/>
<path d="M0 0 C0.99 0.33 1.98 0.66 3 1 C2.67 2.65 2.34 4.3 2 6 C1.505 5.505 1.01 5.01 0.5 4.5 C-3.11630158 2.33021905 -5.82231616 2.79111581 -10 3 C-7.29146467 -0.82381459 -4.39435745 -0.31388268 0 0 Z " fill="#E9ECEE" transform="translate(37,18)"/>
<path d="M0 0 C5.75 0.875 5.75 0.875 8 2 C9.66619446 2.0396713 11.33391013 2.04384447 13 2 C12.67 2.99 12.34 3.98 12 5 C10.02 5.33 8.04 5.66 6 6 C6 5.01 6 4.02 6 3 C4.02 2.34 2.04 1.68 0 1 C0 0.67 0 0.34 0 0 Z " fill="#628DAB" transform="translate(109,94)"/>
<path d="M0 0 C0 3.3 0 6.6 0 10 C-1.65 9.67 -3.3 9.34 -5 9 C-4.6875 5.625 -4.6875 5.625 -4 2 C-1 0 -1 0 0 0 Z " fill="#137BA4" transform="translate(82,28)"/>
<path d="M0 0 C1.231394 2.46278801 1.07159196 4.2795055 1 7 C0.01 7.33 -0.98 7.66 -2 8 C-2.33 8.66 -2.66 9.32 -3 10 C-5.0625 10.625 -5.0625 10.625 -7 11 C-4.29508197 4.14754098 -4.29508197 4.14754098 -2 3 C-1.34 2.01 -0.68 1.02 0 0 Z " fill="#0F4676" transform="translate(103,100)"/>
<path d="M0 0 C4.43458973 1.3937282 6.87378374 3.60582235 10 7 C7.03 6.67 4.06 6.34 1 6 C0.67 4.02 0.34 2.04 0 0 Z " fill="#315D85" transform="translate(33,89)"/>
<path d="M0 0 C1.8125 0.1875 1.8125 0.1875 4 1 C5 2.66666667 6 4.33333333 7 6 C9.08533633 6.87822312 9.08533633 6.87822312 11 7 C8.23776722 9.76223278 5.79293383 9.57856291 2 10 C2.66 9.67 3.32 9.34 4 9 C4 7.35 4 5.7 4 4 C2.68 3.34 1.36 2.68 0 2 C0 1.34 0 0.68 0 0 Z " fill="#135A88" transform="translate(29,72)"/>
<path d="M0 0 C0.928125 0.20625 1.85625 0.4125 2.8125 0.625 C2.4825 1.285 2.1525 1.945 1.8125 2.625 C0.1625 2.625 -1.4875 2.625 -3.1875 2.625 C-2.1975 2.955 -1.2075 3.285 -0.1875 3.625 C-0.5175 4.615 -0.8475 5.605 -1.1875 6.625 C-2.5075 6.295 -3.8275 5.965 -5.1875 5.625 C-5.5175 4.305 -5.8475 2.985 -6.1875 1.625 C-3.1875 -0.375 -3.1875 -0.375 0 0 Z " fill="#DFE1E5" transform="translate(125.1875,64.375)"/>
<path d="M0 0 C3.37462715 0.54723683 5.08235 1.0549 8 3 C3.59085217 4.10228696 -0.48382401 4.07654536 -5 4 C-4.67 3.01 -4.34 2.02 -4 1 C-2.02 1.495 -2.02 1.495 0 2 C0 1.34 0 0.68 0 0 Z " fill="#1F4671" transform="translate(5,104)"/>
<path d="M0 0 C1.32 0.33 2.64 0.66 4 1 C0.04 3.64 -3.92 6.28 -8 9 C-8.66 8.67 -9.32 8.34 -10 8 C-8.42982807 6.63059432 -6.84334609 5.27987105 -5.25 3.9375 C-3.92742187 2.80634766 -3.92742187 2.80634766 -2.578125 1.65234375 C-1.30195312 0.83443359 -1.30195312 0.83443359 0 0 Z " fill="#234472" transform="translate(95,93)"/>
<path d="M0 0 C1.32 0.66 2.64 1.32 4 2 C3.2575 2.2475 2.515 2.495 1.75 2.75 C-1.20124062 4.09147301 -2.84814974 5.60905526 -5 8 C-5.66 7.67 -6.32 7.34 -7 7 C-7 7.66 -7 8.32 -7 9 C-8.65 9.33 -10.3 9.66 -12 10 C-8.40945767 6.11024581 -4.26101118 3.10267805 0 0 Z " fill="#1D4B79" transform="translate(74,82)"/>
<path d="M0 0 C2.31 0 4.62 0 7 0 C7.66 1.32 8.32 2.64 9 4 C8.34 4.66 7.68 5.32 7 6 C4.375 5.625 4.375 5.625 2 5 C2.99 4.67 3.98 4.34 5 4 C5 3.34 5 2.68 5 2 C3.35 1.67 1.7 1.34 0 1 C0 0.67 0 0.34 0 0 Z " fill="#275782" transform="translate(5,72)"/>
<path d="M0 0 C2.125 0.9375 2.125 0.9375 4 2 C3.34 2 2.68 2 2 2 C2 2.66 2 3.32 2 4 C1.01 4 0.02 4 -1 4 C-1 5.32 -1 6.64 -1 8 C-1.99 8.33 -2.98 8.66 -4 9 C-4 8.01 -4 7.02 -4 6 C-4.66 5.67 -5.32 5.34 -6 5 C-4.68 5 -3.36 5 -2 5 C-2 3.68 -2 2.36 -2 1 C-1.34 0.67 -0.68 0.34 0 0 Z " fill="#3C678D" transform="translate(25,95)"/>
<path d="M0 0 C0.99 0.33 1.98 0.66 3 1 C2.34 1.66 1.68 2.32 1 3 C0.76957501 6.53318313 0.95815745 9.61401171 2 13 C0 11.4375 0 11.4375 -2 9 C-2.375 5.375 -2.375 5.375 -2 2 C-1.34 1.34 -0.68 0.68 0 0 Z " fill="#E6E9EC" transform="translate(72,66)"/>
<path d="M0 0 C3.125 0.75 3.125 0.75 6 2 C6.33 2.66 6.66 3.32 7 4 C6.34 4.66 5.68 5.32 5 6 C2.36 4.68 -0.28 3.36 -3 2 C-2.01 1.34 -1.02 0.68 0 0 Z " fill="#A0A9B8" transform="translate(8,101)"/>
<path d="M0 0 C1.65 0 3.3 0 5 0 C4.125 4.75 4.125 4.75 3 7 C1.68 6.67 0.36 6.34 -1 6 C-0.67 5.01 -0.34 4.02 0 3 C0.66 3 1.32 3 2 3 C2 2.34 2 1.68 2 1 C1.34 0.67 0.68 0.34 0 0 Z " fill="#84A0B7" transform="translate(30,101)"/>
<path d="M0 0 C0.99 0.33 1.98 0.66 3 1 C3.6875 3.0625 3.6875 3.0625 4 5 C3.34 5 2.68 5 2 5 C1.67 5.99 1.34 6.98 1 8 C0.71125 7.38125 0.4225 6.7625 0.125 6.125 C-0.93720042 3.86674235 -0.93720042 3.86674235 -3 2 C-2.01 1.34 -1.02 0.68 0 0 Z " fill="#6591AE" transform="translate(108,71)"/>
<path d="M0 0 C4.35535069 1.16142685 6.64619703 2.07699505 9 6 C8.67 6.66 8.34 7.32 8 8 C4.7 6.35 1.4 4.7 -2 3 C-1.34 2.01 -0.68 1.02 0 0 Z " fill="#1B5886" transform="translate(119,69)"/>
<path d="M0 0 C0 0.66 0 1.32 0 2 C-5.29411765 6 -5.29411765 6 -9 6 C-8.34 5.34 -7.68 4.68 -7 4 C-7 3.01 -7 2.02 -7 1 C-3.375 -1.125 -3.375 -1.125 0 0 Z " fill="#0F4676" transform="translate(107,94)"/>
<path d="M0 0 C0.99 0 1.98 0 3 0 C3.33 0.99 3.66 1.98 4 3 C2.68 3 1.36 3 0 3 C0 3.99 0 4.98 0 6 C-0.99 6 -1.98 6 -3 6 C-3 6.66 -3 7.32 -3 8 C-3.66 8 -4.32 8 -5 8 C-4.1875 5.5625 -4.1875 5.5625 -3 3 C-2.01 2.67 -1.02 2.34 0 2 C0 1.34 0 0.68 0 0 Z " fill="#5D86A5" transform="translate(10,84)"/>
<path d="M0 0 C-0.66 1.32 -1.32 2.64 -2 4 C-2.5775 3.67 -3.155 3.34 -3.75 3 C-6.19883862 1.72924102 -6.19883862 1.72924102 -10 2 C-10 1.34 -10 0.68 -10 0 C-6.30581799 -1.231394 -3.7943739 -0.64432764 0 0 Z " fill="#285E88" transform="translate(68,77)"/>
<path d="M0 0 C1.07765625 0.00902344 2.1553125 0.01804687 3.265625 0.02734375 C4.08546875 0.03894531 4.9053125 0.05054687 5.75 0.0625 C6.08 0.7225 6.41 1.3825 6.75 2.0625 C3.64615361 3.09711546 2.49968079 3.00656088 -0.625 2.5 C-4.41171899 2.00581155 -6.81581439 2.17923692 -10.25 4.0625 C-10.25 3.0725 -10.25 2.0825 -10.25 1.0625 C-6.78777385 -0.00473961 -3.60960734 -0.03923486 0 0 Z " fill="#0F5585" transform="translate(10.25,68.9375)"/>
<path d="M0 0 C0.33 0.66 0.66 1.32 1 2 C-2.8503105 4.56687367 -4.58569763 3.83288724 -9 3 C-9 2.34 -9 1.68 -9 1 C-5.8035914 -0.06546953 -3.34252724 -0.07427838 0 0 Z " fill="#90A4B7" transform="translate(46,111)"/>
<path d="M0 0 C2.475 0.99 2.475 0.99 5 2 C4.34 3.65 3.68 5.3 3 7 C2.01 7 1.02 7 0 7 C-0.66 5.35 -1.32 3.7 -2 2 C-1.34 2 -0.68 2 0 2 C0 1.34 0 0.68 0 0 Z " fill="#E0E3E7" transform="translate(15,90)"/>
<path d="M0 0 C1.8125 0.3125 1.8125 0.3125 4 1 C5.66519519 1.34060811 7.33157466 1.67558396 9 2 C4.89473684 4.73684211 4.89473684 4.73684211 2 5 C-0.25 3.5625 -0.25 3.5625 -2 2 C-1.34 1.34 -0.68 0.68 0 0 Z " fill="#1A5280" transform="translate(97,88)"/>
<path d="M0 0 C1.65 0.33 3.3 0.66 5 1 C5 2.32 5 3.64 5 5 C4.01 5 3.02 5 2 5 C1.67 4.34 1.34 3.68 1 3 C0.01 3.33 -0.98 3.66 -2 4 C-1.34 2.68 -0.68 1.36 0 0 Z " fill="#185887" transform="translate(75,66)"/>
<path d="M0 0 C2.54707431 3.82061146 2.08965489 6.07996266 1.875 10.52734375 C2.00991125 13.19605684 2.64781908 14.72347665 4 17 C2.68 17 1.36 17 0 17 C0 11.39 0 5.78 0 0 Z " fill="#055C8E" transform="translate(88,22)"/>
<path d="M0 0 C0.33 0 0.66 0 1 0 C1 1.98 1 3.96 1 6 C1.33 5.34 1.66 4.68 2 4 C3.65 4.33 5.3 4.66 7 5 C5 7 5 7 2.8359375 7.1953125 C1.61777344 7.16050781 1.61777344 7.16050781 0.375 7.125 C-0.44226563 7.10695313 -1.25953125 7.08890625 -2.1015625 7.0703125 C-2.72804688 7.04710938 -3.35453125 7.02390625 -4 7 C-2.68 6.67 -1.36 6.34 0 6 C0 5.01 0 4.02 0 3 C-0.66 2.67 -1.32 2.34 -2 2 C-1.34 1.34 -0.68 0.68 0 0 Z " fill="#093D6E" transform="translate(83,106)"/>
<path d="M0 0 C0.99 0.33 1.98 0.66 3 1 C3 1.99 3 2.98 3 4 C-0.3 4.33 -3.6 4.66 -7 5 C-2.25 1.125 -2.25 1.125 0 0 Z " fill="#47698B" transform="translate(80,108)"/>
<path d="M0 0 C3.66226912 0.39238598 6.77780124 2.31566883 10 4 C8.265625 5.1171875 8.265625 5.1171875 6 6 C3.859375 5.3203125 3.859375 5.3203125 1.75 4.125 C1.04359375 3.73570313 0.3371875 3.34640625 -0.390625 2.9453125 C-0.92171875 2.63335937 -1.4528125 2.32140625 -2 2 C-1.34 1.34 -0.68 0.68 0 0 Z " fill="#174571" transform="translate(110,91)"/>
<path d="M0 0 C1.66611905 -0.042721 3.33382885 -0.04063832 5 0 C6 1 6 1 6.0625 3.5625 C6.041875 4.366875 6.02125 5.17125 6 6 C4.68 5.67 3.36 5.34 2 5 C2.33 4.34 2.66 3.68 3 3 C1.68 3 0.36 3 -1 3 C-0.67 2.01 -0.34 1.02 0 0 Z " fill="#E9EAED" transform="translate(28,90)"/>
<path d="M0 0 C1.98 0.66 3.96 1.32 6 2 C5.67 2.66 5.34 3.32 5 4 C2.93359375 4.4140625 2.93359375 4.4140625 0.4375 4.625 C-0.38878906 4.69976562 -1.21507812 4.77453125 -2.06640625 4.8515625 C-3.02353516 4.92503906 -3.02353516 4.92503906 -4 5 C-2.68 3.35 -1.36 1.7 0 0 Z " fill="#0E4372" transform="translate(59,111)"/>
<path d="M0 0 C3.63 0 7.26 0 11 0 C10.67 1.32 10.34 2.64 10 4 C6.7 3.01 3.4 2.02 0 1 C0 0.67 0 0.34 0 0 Z " fill="#265A83" transform="translate(112,90)"/>
<path d="M0 0 C1.67542976 0.28604898 3.34385343 0.61781233 5 1 C5 1.99 5 2.98 5 4 C3.35 4.33 1.7 4.66 0 5 C-0.5625 3.0625 -0.5625 3.0625 -1 1 C-0.67 0.67 -0.34 0.34 0 0 Z " fill="#D4DAE0" transform="translate(98,79)"/>
<path d="M0 0 C0.66 0 1.32 0 2 0 C2 1.98 2 3.96 2 6 C0.68 6.33 -0.64 6.66 -2 7 C-2.125 4.625 -2.125 4.625 -2 2 C-1.34 1.34 -0.68 0.68 0 0 Z " fill="#156996" transform="translate(46,30)"/>
<path d="M0 0 C0.66 0 1.32 0 2 0 C2 1.98 2 3.96 2 6 C0.68 6.33 -0.64 6.66 -2 7 C-2.125 4.625 -2.125 4.625 -2 2 C-1.34 1.34 -0.68 0.68 0 0 Z " fill="#146B97" transform="translate(65,30)"/>
<path d="M0 0 C-0.33 0.99 -0.66 1.98 -1 3 C-2.65 3.33 -4.3 3.66 -6 4 C-6.99 2.68 -7.98 1.36 -9 0 C-5.52176885 -1.15941038 -3.54104422 -0.70820884 0 0 Z " fill="#6990A9" transform="translate(97,114)"/>
<path d="M0 0 C-0.33 0.99 -0.66 1.98 -1 3 C-4.375 3.125 -4.375 3.125 -8 3 C-8.66 2.34 -9.32 1.68 -10 1 C-3.375 -1.125 -3.375 -1.125 0 0 Z " fill="#12497A" transform="translate(80,100)"/>
<path d="M0 0 C0.66 0.33 1.32 0.66 2 1 C1.67 1.99 1.34 2.98 1 4 C1.99 4 2.98 4 4 4 C4 4.99 4 5.98 4 7 C2.35 7 0.7 7 -1 7 C-1.625 4.625 -1.625 4.625 -2 2 C-1.34 1.34 -0.68 0.68 0 0 Z " fill="#EFEFF0" transform="translate(72,86)"/>
<path d="M0 0 C-0.639375 0.28875 -1.27875 0.5775 -1.9375 0.875 C-4.15206079 1.82823451 -4.15206079 1.82823451 -5 4 C-5 3.34 -5 2.68 -5 2 C-8.3 2 -11.6 2 -15 2 C-15 1.67 -15 1.34 -15 1 C-9.92928099 0.28832014 -5.11791642 -0.10662326 0 0 Z " fill="#0E3C69" transform="translate(15,109)"/>
<path d="M0 0 C0.33 0.99 0.66 1.98 1 3 C3.01508358 3.73323796 3.01508358 3.73323796 5 4 C3.3125 5.1875 3.3125 5.1875 1 6 C-1.75 4.625 -1.75 4.625 -4 3 C-3 1 -3 1 0 0 Z " fill="#294B74" transform="translate(23,105)"/>
<path d="M0 0 C1.65 0 3.3 0 5 0 C5.33 0.99 5.66 1.98 6 3 C5 4 5 4 1.4375 4.0625 C0.303125 4.041875 -0.83125 4.02125 -2 4 C-1.01 3.67 -0.02 3.34 1 3 C0.67 2.01 0.34 1.02 0 0 Z " fill="#245D85" transform="translate(43,113)"/>
<path d="M0 0 C0.66 0.33 1.32 0.66 2 1 C2.34342449 2.33076989 2.67619874 3.66431979 3 5 C3.66 5.66 4.32 6.32 5 7 C4.34 7.66 3.68 8.32 3 9 C3 8.34 3 7.68 3 7 C2.01 7 1.02 7 0 7 C0 6.01 0 5.02 0 4 C-0.66 3.67 -1.32 3.34 -2 3 C-1.34 3 -0.68 3 0 3 C0 2.01 0 1.02 0 0 Z " fill="#EEECED" transform="translate(104,104)"/>
<path d="M0 0 C2.475 0.99 2.475 0.99 5 2 C3.68 3.32 2.36 4.64 1 6 C0.01 4.68 -0.98 3.36 -2 2 C-1.34 2 -0.68 2 0 2 C0 1.34 0 0.68 0 0 Z " fill="#EFF0F1" transform="translate(87,88)"/>
<path d="M0 0 C1.32 1.65 2.64 3.3 4 5 C3.34 5.66 2.68 6.32 2 7 C2 6.34 2 5.68 2 5 C1.01 5 0.02 5 -1 5 C-1 5.66 -1 6.32 -1 7 C-1.99 6.67 -2.98 6.34 -4 6 C-3.525625 5.566875 -3.05125 5.13375 -2.5625 4.6875 C-0.76313043 2.97690387 -0.76313043 2.97690387 0 0 Z " fill="#144A7C" transform="translate(90,80)"/>
<path d="M0 0 C2.51083114 1.25541557 2.87125446 2.50063488 4 5 C2.68 5.33 1.36 5.66 0 6 C-0.38218767 4.34385343 -0.71395102 2.67542976 -1 1 C-0.67 0.67 -0.34 0.34 0 0 Z " fill="#D8DEE4" transform="translate(62,78)"/>
<path d="M0 0 C2.475 0.495 2.475 0.495 5 1 C4.01 3.97 3.02 6.94 2 10 C0.0044484 6.00889681 -0.19546065 4.30013434 0 0 Z " fill="#5F8AA8" transform="translate(88,73)"/>
<path d="M0 0 C1.32 0.33 2.64 0.66 4 1 C5.125 5.75 5.125 5.75 4 8 C3.34 8 2.68 8 2 8 C1.34 5.36 0.68 2.72 0 0 Z " fill="#D3DEE5" transform="translate(92,60)"/>
<path d="M0 0 C1.98 0.99 3.96 1.98 6 3 C4 5 4 5 1.375 5.125 C0.59125 5.08375 -0.1925 5.0425 -1 5 C-0.67 3.35 -0.34 1.7 0 0 Z " fill="#0A4778" transform="translate(34,105)"/>
<path d="M0 0 C0.99 0.33 1.98 0.66 3 1 C3 2.32 3 3.64 3 5 C1.02 5.99 1.02 5.99 -1 7 C-1.04254356 5.00045254 -1.04080783 2.99958364 -1 1 C-0.67 0.67 -0.34 0.34 0 0 Z " fill="#6088A5" transform="translate(85,105)"/>
<path d="M0 0 C1 3 1 3 1 6 C0.34 6 -0.32 6 -1 6 C-1.33 6.99 -1.66 7.98 -2 9 C-2.66 7.68 -3.32 6.36 -4 5 C-2.68 3.35 -1.36 1.7 0 0 Z " fill="#3F668A" transform="translate(19,93)"/>
<path d="M0 0 C0.66 0.33 1.32 0.66 2 1 C0.8803014 2.00593243 -0.2459412 3.0045849 -1.375 4 C-2.00148438 4.556875 -2.62796875 5.11375 -3.2734375 5.6875 C-5 7 -5 7 -7 7 C-5.66667905 3.00003714 -3.5042173 2.16217663 0 0 Z " fill="#E9EBED" transform="translate(73,81)"/>
<path d="M0 0 C1.65 0 3.3 0 5 0 C4.67 1.32 4.34 2.64 4 4 C2.68 4.33 1.36 4.66 0 5 C0 3.35 0 1.7 0 0 Z " fill="#2A6E96" transform="translate(0,76)"/>
<path d="M0 0 C1.65 1.32 3.3 2.64 5 4 C4.34 4.66 3.68 5.32 3 6 C0.875 5.625 0.875 5.625 -1 5 C-0.67 3.35 -0.34 1.7 0 0 Z " fill="#FAF8F8" transform="translate(61,34)"/>
<path d="M0 0 C1.32 0.99 2.64 1.98 4 3 C3.67 4.32 3.34 5.64 3 7 C3 6.34 3 5.68 3 5 C2.01 5.33 1.02 5.66 0 6 C-0.38218767 4.34385343 -0.71395102 2.67542976 -1 1 C-0.67 0.67 -0.34 0.34 0 0 Z " fill="#2F6187" transform="translate(6,93)"/>
<path d="M0 0 C0.66 0.66 1.32 1.32 2 2 C-2.75 6 -2.75 6 -5 6 C-5.66 4.35 -6.32 2.7 -7 1 C-5.02 1.99 -5.02 1.99 -3 3 C-2.01 2.01 -1.02 1.02 0 0 Z " fill="#133F6F" transform="translate(92,90)"/>
<path d="M0 0 C1.65 0.33 3.3 0.66 5 1 C4.67 2.65 4.34 4.3 4 6 C3.34 5.67 2.68 5.34 2 5 C2.33 4.01 2.66 3.02 3 2 C2.01 2 1.02 2 0 2 C-0.33 2.99 -0.66 3.98 -1 5 C-0.67 3.35 -0.34 1.7 0 0 Z " fill="#156894" transform="translate(88,62)"/>
<path d="M0 0 C2.92879371 0.62759865 5.36095629 1.58622659 8 3 C6.02 3.66 4.04 4.32 2 5 C1.34 3.35 0.68 1.7 0 0 Z " fill="#08588A" transform="translate(53,86)"/>
<path d="M0 0 C0.66 0 1.32 0 2 0 C1.64950425 3.24208567 1.43778819 4.61527704 -1.0625 6.8125 C-1.701875 7.204375 -2.34125 7.59625 -3 8 C-3 7.01 -3 6.02 -3 5 C-2.34 5 -1.68 5 -1 5 C-0.67 3.35 -0.34 1.7 0 0 Z " fill="#2E6892" transform="translate(75,74)"/>
<path d="M0 0 C2.31 0.33 4.62 0.66 7 1 C7.33 1.99 7.66 2.98 8 4 C5.03 3.505 5.03 3.505 2 3 C2 2.34 2 1.68 2 1 C1.34 0.67 0.68 0.34 0 0 Z " fill="#1D5B87" transform="translate(110,72)"/>
<path d="M0 0 C3.91402949 1.26941497 5.79072873 2.51167694 8 6 C6.68 6.33 5.36 6.66 4 7 C4 5.68 4 4.36 4 3 C2.68 2.34 1.36 1.68 0 1 C0 0.67 0 0.34 0 0 Z " fill="#123F72" transform="translate(16,73)"/>
<path d="M0 0 C2.475 0.99 2.475 0.99 5 2 C4.01 3.485 4.01 3.485 3 5 C1.68 4.67 0.36 4.34 -1 4 C-0.67 2.68 -0.34 1.36 0 0 Z " fill="#F9F8F7" transform="translate(42,35)"/>
<path d="M0 0 C0.99 0.33 1.98 0.66 3 1 C3 1.66 3 2.32 3 3 C2.34 3 1.68 3 1 3 C1 3.66 1 4.32 1 5 C1.66 5.33 2.32 5.66 3 6 C1.68 5.67 0.36 5.34 -1 5 C-0.67 3.35 -0.34 1.7 0 0 Z " fill="#EEEFF1" transform="translate(50,109)"/>
<path d="M0 0 C-1.485 1.485 -1.485 1.485 -3 3 C-3.33 2.67 -3.66 2.34 -4 2 C-5.34747084 1.76924918 -6.70377565 1.58846937 -8.0625 1.4375 C-9.361875 1.293125 -10.66125 1.14875 -12 1 C-12 0.67 -12 0.34 -12 0 C-10.37585622 -0.19477739 -8.75063577 -0.38059458 -7.125 -0.5625 C-6.22007813 -0.66691406 -5.31515625 -0.77132812 -4.3828125 -0.87890625 C-2 -1 -2 -1 0 0 Z " fill="#FCFCFB" transform="translate(80,107)"/>
<path d="M0 0 C0.33 0.66 0.66 1.32 1 2 C-2.3 1.67 -5.6 1.34 -9 1 C-4.88348273 -1.05825864 -4.13191749 -1.34008135 0 0 Z " fill="#F8F8F8" transform="translate(48,96)"/>
<path d="M0 0 C0.99 0 1.98 0 3 0 C2.74438677 2.3431213 2.40729228 4.67843403 2 7 C1.01 7.495 1.01 7.495 0 8 C0 5.36 0 2.72 0 0 Z " fill="#E7EBEF" transform="translate(82,91)"/>
<path d="M0 0 C0.99 0.33 1.98 0.66 3 1 C2.34 2.65 1.68 4.3 1 6 C0.01 5.67 -0.98 5.34 -2 5 C-1.34 3.35 -0.68 1.7 0 0 Z " fill="#225583" transform="translate(95,77)"/>
<path d="M0 0 C0.99 0 1.98 0 3 0 C3.33 1.65 3.66 3.3 4 5 C3.01 5.66 2.02 6.32 1 7 C0.67 4.69 0.34 2.38 0 0 Z " fill="#CFDAE2" transform="translate(67,76)"/>
<path d="M0 0 C1.65 0 3.3 0 5 0 C5.33 1.32 5.66 2.64 6 4 C4.68 4.33 3.36 4.66 2 5 C2.33 3.68 2.66 2.36 3 1 C2.01 0.67 1.02 0.34 0 0 Z " fill="#06457A" transform="translate(110,62)"/>
</svg>
